mtllib Z3D0CC7UGL8GOXCGO3BEF92NB.mtl
v 1.187714 -0.484907 -0.442354
v 1.187714 -0.484907 0.679174
v -1.187714 -0.484907 -0.442354
v -1.187714 -0.484907 0.679174
v 1.187714 0.329983 -0.442354
v -1.187714 0.329983 -0.442354
v 1.187714 0.329983 0.679174
v -1.187714 0.329983 0.679174
v -0.579507 0.245178 -0.449082
v -0.855520 0.245178 -0.487431
v -0.580728 0.245178 -0.442354
v -0.856742 0.245178 -0.480703
v -0.260747 -0.404366 -0.688593
v -0.260748 -0.484907 -0.688593
v -0.701636 -0.404366 -0.688593
v -0.701636 -0.484907 -0.688593
v -0.260747 -0.404366 -0.433608
v -0.260748 -0.484907 -0.433608
v -0.260747 -0.404366 -0.688593
v -0.260748 -0.484907 -0.688593
v -0.701636 -0.404366 -0.688593
v -0.701636 -0.484907 -0.688593
v -0.701636 -0.404366 -0.433608
v -0.701636 -0.484907 -0.433608
v -0.260747 -0.404366 -0.688593
v -0.701636 -0.404366 -0.688593
v -0.260747 -0.404366 -0.433608
v -0.701636 -0.404366 -0.433608
v 1.250000 0.484907 -0.465902
v 1.250000 0.329983 -0.465902
v -1.250000 0.484907 -0.465902
v -1.250000 0.329983 -0.465902
v 1.250000 0.484907 0.688593
v 1.250000 0.329983 0.688593
v 1.250000 0.484907 -0.465902
v 1.250000 0.329983 -0.465902
v 1.250000 0.329983 0.688593
v 1.250000 0.484907 0.688593
v -1.250000 0.329983 0.688593
v -1.250000 0.484907 0.688593
v -1.250000 0.329983 0.688593
v -1.250000 0.484907 0.688593
v -1.250000 0.329983 -0.465902
v -1.250000 0.484907 -0.465902
v -1.250000 0.484907 0.688593
v 1.250000 0.484907 0.688593
v -1.250000 0.484907 -0.465902
v 1.250000 0.484907 -0.465902
v 1.250000 0.329983 -0.465902
v 1.250000 0.329983 0.688593
v -1.250000 0.329983 -0.465902
v -1.250000 0.329983 0.688593
v -0.855521 -0.367411 -0.487431
v -0.855520 0.245178 -0.487431
v -0.579507 -0.367411 -0.449082
v -0.579507 0.245178 -0.449082
v -0.579507 -0.367411 -0.449082
v -0.579507 0.245178 -0.449082
v -0.580728 -0.367411 -0.442354
v -0.580728 0.245178 -0.442354
v -0.580728 -0.367411 -0.442354
v -0.580728 0.245178 -0.442354
v -0.856742 -0.367411 -0.480703
v -0.856742 0.245178 -0.480703
v -0.856742 -0.367411 -0.480703
v -0.856742 0.245178 -0.480703
v -0.855521 -0.367411 -0.487431
v -0.855520 0.245178 -0.487431
v -0.856742 -0.367411 -0.480703
v -0.855521 -0.367411 -0.487431
v -0.580728 -0.367411 -0.442354
v -0.579507 -0.367411 -0.449082
v 1.187714 0.329983 -0.442354
v 1.187714 -0.484907 -0.442354
v -1.187714 0.329983 -0.442354
v -1.187714 -0.484907 -0.442354
v 1.187714 0.329983 0.679174
v 1.187714 -0.484907 0.679174
v 1.187714 0.329983 -0.442354
v 1.187714 -0.484907 -0.442354
v -1.187714 0.329983 0.679174
v -1.187714 -0.484907 0.679174
v 1.187714 0.329983 0.679174
v 1.187714 -0.484907 0.679174
v -1.187714 -0.484907 0.679174
v -1.187714 0.329983 0.679174
v -1.187714 -0.484907 -0.442354
v -1.187714 0.329983 -0.442354
# num_vertices: 88

vt 0.891760 0.709812
vt 0.891760 0.985080
vt 0.101960 0.709812
vt 0.101960 0.985080
vt 0.102690 0.708255
vt 0.892368 0.708255
vt 0.102690 0.983523
vt 0.892368 0.983523
vt 0.732195 0.496326
vt 0.732195 0.081328
vt 0.838369 0.496326
vt 0.838369 0.081328
vt 0.776951 0.053310
vt 0.619818 0.053310
vt 0.776951 0.021700
vt 0.619818 0.021700
vt 0.776951 0.053310
vt 0.619818 0.053310
vt 0.776951 0.021700
vt 0.619818 0.021700
vt 0.776951 0.053310
vt 0.619818 0.053310
vt 0.776951 0.021700
vt 0.619818 0.021700
vt 0.776951 0.053310
vt 0.619818 0.053310
vt 0.776951 0.021700
vt 0.619818 0.021700
vt 0.001867 0.697359
vt 0.001867 0.580858
vt 0.997934 0.697359
vt 0.997934 0.580858
vt 0.096852 0.697000
vt 0.096852 0.580379
vt 0.342524 0.697000
vt 0.342524 0.580379
vt 0.997813 0.580858
vt 0.997813 0.697359
vt 0.001745 0.580858
vt 0.001745 0.697359
vt 0.342524 0.580379
vt 0.342524 0.697120
vt 0.096974 0.580379
vt 0.096974 0.697120
vt 0.892368 0.983523
vt 0.102690 0.983523
vt 0.892368 0.708255
vt 0.102690 0.708255
vt 0.891760 0.709812
vt 0.891760 0.985080
vt 0.101960 0.709812
vt 0.101960 0.985080
vt 0.838369 0.081328
vt 0.838369 0.496326
vt 0.732195 0.081328
vt 0.732195 0.496326
vt 0.838369 0.081328
vt 0.838369 0.496326
vt 0.732195 0.081328
vt 0.732195 0.496326
vt 0.838369 0.081328
vt 0.838369 0.496326
vt 0.732195 0.081328
vt 0.732195 0.496326
vt 0.838369 0.081328
vt 0.838369 0.496326
vt 0.732195 0.081328
vt 0.732195 0.496326
vt 0.732195 0.081328
vt 0.838369 0.081328
vt 0.732195 0.496326
vt 0.838369 0.496326
vt 0.021812 0.565173
vt 0.021812 0.004459
vt 0.980664 0.565173
vt 0.980664 0.004459
vt 0.270647 0.563497
vt 0.270647 0.004339
vt 0.609967 0.563497
vt 0.609967 0.004339
vt 0.021691 0.565173
vt 0.021691 0.004339
vt 0.980543 0.565173
vt 0.980543 0.004339
vt 0.610088 0.004698
vt 0.610088 0.563856
vt 0.270769 0.004698
vt 0.270769 0.563856
# num_vertices: 88


g Object_TexMap_0

usemtl TexMap

f 1/1 2/2 3/3
f 2/2 4/4 3/3
f 5/5 6/6 7/7
f 6/6 8/8 7/7
f 9/9 10/10 11/11
f 10/10 12/12 11/11
f 13/13 14/14 15/15
f 14/14 16/16 15/15
f 17/17 18/18 19/19
f 18/18 20/20 19/19
f 21/21 22/22 23/23
f 22/22 24/24 23/23
f 25/25 26/26 27/27
f 26/26 28/28 27/27
f 29/29 30/30 31/31
f 30/30 32/32 31/31
f 33/33 34/34 35/35
f 34/34 36/36 35/35
f 37/37 38/38 39/39
f 38/38 40/40 39/39
f 41/41 42/42 43/43
f 42/42 44/44 43/43
f 45/45 46/46 47/47
f 46/46 48/48 47/47
f 49/49 50/50 51/51
f 50/50 52/52 51/51
f 53/53 54/54 55/55
f 54/54 56/56 55/55
f 57/57 58/58 59/59
f 58/58 60/60 59/59
f 61/61 62/62 63/63
f 62/62 64/64 63/63
f 65/65 66/66 67/67
f 66/66 68/68 67/67
f 69/69 70/70 71/71
f 70/70 72/72 71/71
f 73/73 74/74 75/75
f 74/74 76/76 75/75
f 77/77 78/78 79/79
f 78/78 80/80 79/79
f 81/81 82/82 83/83
f 82/82 84/84 83/83
f 85/85 86/86 87/87
f 86/86 88/88 87/87
# num_faces: 44
