mtllib DZ9Y8P5NOIUGBQ7ZXFWP5ISMQ.mtl
v -1.250000 0.453125 0.711168
v 1.250000 0.453124 0.711168
v -1.250000 0.453125 -0.358190
v 1.250000 0.453124 -0.358190
v -1.250000 0.453125 -0.358190
v -1.250000 0.394243 -0.358190
v -1.250000 0.453125 0.711168
v -1.250000 0.394243 0.711168
v -1.217025 0.265411 -0.344293
v -1.217025 0.265411 0.697271
v -1.217025 -0.453125 -0.344293
v -1.217025 -0.453125 0.697271
v -0.258305 0.233535 -0.593045
v -0.258305 0.173325 -0.638210
v -0.258305 0.233535 -0.545101
v -0.258305 0.173325 -0.545101
v -0.258305 0.113558 -0.668782
v -0.258305 0.113558 -0.545101
v -0.258305 0.053348 -0.691712
v -0.258305 0.053348 -0.545101
v -0.258305 -0.006862 -0.711168
v -0.258305 -0.006862 -0.545101
v 0.254641 -0.453125 -0.338039
v 0.254641 0.265411 -0.338039
v -0.258305 -0.453125 -0.338039
v -0.258305 0.265411 -0.338039
v 0.261969 0.394243 -0.335260
v -0.265633 0.394243 -0.335260
v 0.261969 0.453124 -0.335260
v -0.265633 0.453124 -0.335260
v -0.285173 0.251687 -0.425589
v -0.473254 0.251687 -0.425589
v -0.285173 0.251687 -0.347072
v -0.473254 0.251687 -0.347072
v 1.217025 -0.453125 0.697271
v 1.217025 0.265411 0.697271
v -1.217025 -0.453125 0.697271
v -1.217025 0.265411 0.697271
v 1.250000 0.394243 0.711168
v -1.250000 0.394243 0.711168
v 1.250000 0.453124 0.711168
v -1.250000 0.453125 0.711168
v 0.255862 0.233535 -0.545101
v 0.255862 0.173325 -0.545101
v 0.255862 0.233535 -0.593045
v 0.255862 0.173325 -0.638210
v 0.255862 0.113558 -0.545101
v 0.255862 0.113558 -0.668782
v 0.255862 0.053348 -0.545101
v 0.255862 0.053348 -0.691712
v 0.255862 -0.006862 -0.545101
v 0.255862 -0.006862 -0.711168
v -1.217025 -0.453125 -0.344293
v -1.217025 0.265411 -0.344293
v 1.217025 -0.453125 -0.344293
v 1.217025 0.265411 -0.344293
v -1.250000 0.394243 -0.358190
v 1.250000 0.394243 -0.358190
v -1.250000 0.453125 -0.358190
v 1.250000 0.453124 -0.358190
v -0.473254 0.126397 -0.425589
v -0.473254 0.251687 -0.425589
v -0.285173 0.126397 -0.425589
v -0.285173 0.251687 -0.425589
v 0.255862 -0.006862 -0.711168
v 0.255862 -0.006862 -0.545101
v -0.258305 -0.006862 -0.711168
v -0.258305 -0.006862 -0.545101
v 0.254641 -0.453125 -0.544406
v 0.254641 0.265411 -0.544406
v 0.254641 -0.453125 -0.338039
v 0.254641 0.265411 -0.338039
v 0.261969 0.394243 -0.547186
v 0.261969 0.394243 -0.335260
v 0.261969 0.453124 -0.547186
v 0.261969 0.453124 -0.335260
v 1.250000 0.453124 0.711168
v 1.250000 0.394243 0.711168
v 1.250000 0.453124 -0.358190
v 1.250000 0.394243 -0.358190
v 1.217025 0.265411 0.697271
v 1.217025 0.265411 -0.344293
v 1.217025 -0.453125 0.697271
v 1.217025 -0.453125 -0.344293
v -0.473254 0.126397 -0.347072
v -0.473254 0.251687 -0.347072
v -0.473254 0.126397 -0.425589
v -0.473254 0.251687 -0.425589
v -0.285173 0.251687 -0.347072
v -0.285173 0.126397 -0.347072
v -0.285173 0.251687 -0.425589
v -0.285173 0.126397 -0.425589
v -0.473254 0.126397 -0.347072
v -0.473254 0.126397 -0.425589
v -0.285173 0.126397 -0.347072
v -0.285173 0.126397 -0.425589
v -0.258305 -0.453125 -0.338039
v -0.258305 0.265411 -0.338039
v -0.258305 -0.453125 -0.544406
v -0.258305 0.265411 -0.544406
v -0.265633 0.394243 -0.335260
v -0.265633 0.394243 -0.547186
v -0.265633 0.453124 -0.335260
v -0.265633 0.453124 -0.547186
v -0.265633 0.453124 -0.335260
v 0.261969 0.453124 -0.335260
v -0.265633 0.453124 -0.547186
v 0.261969 0.453124 -0.547186
v 0.261969 0.453124 -0.547186
v 0.261969 0.394243 -0.547186
v -0.265633 0.453124 -0.547186
v -0.265633 0.394243 -0.547186
v 0.254641 0.265411 -0.544406
v -0.258305 0.265411 -0.544406
v 0.254641 -0.453125 -0.544406
v -0.258305 -0.453125 -0.544406
v -0.258305 -0.006862 -0.711168
v -0.258305 0.053348 -0.691712
v 0.255862 -0.006862 -0.711168
v 0.255862 0.053348 -0.691712
v -0.258305 0.113558 -0.668782
v 0.255862 0.113558 -0.668782
v -0.258305 0.173325 -0.638210
v 0.255862 0.173325 -0.638210
v -0.258305 0.233535 -0.593045
v 0.255862 0.233535 -0.593045
v 0.255862 0.233535 -0.593045
v -0.258305 0.233535 -0.593045
v 0.255862 0.233535 -0.545101
v -0.258305 0.233535 -0.545101
# num_vertices: 130

vt 0.999306 0.994276
vt 0.002673 0.994276
vt 0.999306 0.698028
vt 0.002673 0.698028
vt 0.001088 0.693060
vt 0.001088 0.679489
vt 0.389887 0.693060
vt 0.389887 0.679489
vt 0.006210 0.550206
vt 0.384643 0.550206
vt 0.006210 0.003268
vt 0.384643 0.003268
vt 0.399155 0.528275
vt 0.399155 0.481748
vt 0.600141 0.528275
vt 0.600141 0.481748
vt 0.399155 0.435221
vt 0.600141 0.435221
vt 0.399155 0.388815
vt 0.600141 0.388815
vt 0.399155 0.342287
vt 0.600141 0.342287
vt 0.601848 0.004116
vt 0.601848 0.550449
vt 0.400131 0.004116
vt 0.400131 0.550449
vt 0.604531 0.678278
vt 0.397326 0.678278
vt 0.604531 0.693181
vt 0.397326 0.693181
vt 0.530625 0.017080
vt 0.530625 0.049553
vt 0.480135 0.017080
vt 0.480135 0.049553
vt 0.986256 0.001814
vt 0.986256 0.550327
vt 0.013771 0.001814
vt 0.013771 0.550327
vt 0.999428 0.678641
vt 0.000600 0.678641
vt 0.999428 0.693545
vt 0.000600 0.693545
vt 0.399155 0.528275
vt 0.399155 0.481748
vt 0.600141 0.528275
vt 0.600141 0.481748
vt 0.399155 0.435221
vt 0.600141 0.435221
vt 0.399155 0.388815
vt 0.600141 0.388815
vt 0.399155 0.342287
vt 0.600141 0.342287
vt 0.986135 0.002056
vt 0.986135 0.550570
vt 0.013649 0.002056
vt 0.013649 0.550570
vt 0.999306 0.678641
vt 0.000478 0.678641
vt 0.999306 0.693787
vt 0.000478 0.693787
vt 0.668071 0.448549
vt 0.668071 0.536394
vt 0.612214 0.448549
vt 0.612214 0.536394
vt 0.600141 0.528275
vt 0.399155 0.528275
vt 0.600141 0.342287
vt 0.399155 0.342287
vt 0.997720 0.004600
vt 0.997720 0.548631
vt 0.901009 0.004600
vt 0.901009 0.548631
vt 0.999062 0.677187
vt 0.899667 0.677187
vt 0.999062 0.690637
vt 0.899667 0.690637
vt 0.000966 0.692818
vt 0.000966 0.679247
vt 0.389765 0.692818
vt 0.389765 0.679247
vt 0.006088 0.549964
vt 0.384643 0.549964
vt 0.006088 0.003025
vt 0.384643 0.003025
vt 0.530869 0.033316
vt 0.530869 0.049674
vt 0.480257 0.033316
vt 0.480257 0.049674
vt 0.480257 0.049553
vt 0.480257 0.033195
vt 0.530747 0.049553
vt 0.530747 0.033195
vt 0.480135 0.017202
vt 0.530625 0.017202
vt 0.480135 0.049674
vt 0.530625 0.049674
vt 0.997842 0.004843
vt 0.997842 0.548995
vt 0.901009 0.004843
vt 0.901009 0.548995
vt 0.999062 0.677430
vt 0.899667 0.677430
vt 0.999062 0.691000
vt 0.899667 0.691000
vt 0.314395 0.987127
vt 0.014747 0.987127
vt 0.314395 0.897708
vt 0.014747 0.897708
vt 0.397326 0.693302
vt 0.397326 0.678278
vt 0.604531 0.693302
vt 0.604531 0.678278
vt 0.400131 0.550691
vt 0.601848 0.550691
vt 0.400131 0.004358
vt 0.601848 0.004358
vt 0.600141 0.342287
vt 0.600141 0.388815
vt 0.399155 0.342287
vt 0.399155 0.388815
vt 0.600141 0.435221
vt 0.399155 0.435221
vt 0.600141 0.481748
vt 0.399155 0.481748
vt 0.600141 0.528275
vt 0.399155 0.528275
vt 0.399155 0.528275
vt 0.399155 0.342287
vt 0.600141 0.528275
vt 0.600141 0.342287
# num_vertices: 130


g Object_TexMap_0

usemtl TexMap

f 1/1 2/2 3/3
f 2/2 4/4 3/3
f 5/5 6/6 7/7
f 6/6 8/8 7/7
f 6/6 9/9 8/8
f 9/9 10/10 8/8
f 9/9 11/11 10/10
f 11/11 12/12 10/10
f 13/13 14/14 15/15
f 14/14 16/16 15/15
f 14/14 17/17 16/16
f 17/17 18/18 16/16
f 17/17 19/19 18/18
f 19/19 20/20 18/18
f 19/19 21/21 20/20
f 21/21 22/22 20/20
f 23/23 24/24 25/25
f 24/24 26/26 25/25
f 24/24 27/27 26/26
f 27/27 28/28 26/26
f 27/27 29/29 28/28
f 29/29 30/30 28/28
f 31/31 32/32 33/33
f 32/32 34/34 33/33
f 35/35 36/36 37/37
f 36/36 38/38 37/37
f 36/36 39/39 38/38
f 39/39 40/40 38/38
f 39/39 41/41 40/40
f 41/41 42/42 40/40
f 43/43 44/44 45/45
f 44/44 46/46 45/45
f 44/44 47/47 46/46
f 47/47 48/48 46/46
f 47/47 49/49 48/48
f 49/49 50/50 48/48
f 49/49 51/51 50/50
f 51/51 52/52 50/50
f 53/53 54/54 55/55
f 54/54 56/56 55/55
f 54/54 57/57 56/56
f 57/57 58/58 56/56
f 57/57 59/59 58/58
f 59/59 60/60 58/58
f 61/61 62/62 63/63
f 62/62 64/64 63/63
f 65/65 66/66 67/67
f 66/66 68/68 67/67
f 69/69 70/70 71/71
f 70/70 72/72 71/71
f 70/70 73/73 72/72
f 73/73 74/74 72/72
f 73/73 75/75 74/74
f 75/75 76/76 74/74
f 77/77 78/78 79/79
f 78/78 80/80 79/79
f 78/78 81/81 80/80
f 81/81 82/82 80/80
f 81/81 83/83 82/82
f 83/83 84/84 82/82
f 85/85 86/86 87/87
f 86/86 88/88 87/87
f 89/89 90/90 91/91
f 90/90 92/92 91/91
f 93/93 94/94 95/95
f 94/94 96/96 95/95
f 97/97 98/98 99/99
f 98/98 100/100 99/99
f 98/98 101/101 100/100
f 101/101 102/102 100/100
f 101/101 103/103 102/102
f 103/103 104/104 102/102
f 105/105 106/106 107/107
f 106/106 108/108 107/107
f 109/109 110/110 111/111
f 110/110 112/112 111/111
f 110/110 113/113 112/112
f 113/113 114/114 112/112
f 113/113 115/115 114/114
f 115/115 116/116 114/114
f 117/117 118/118 119/119
f 118/118 120/120 119/119
f 118/118 121/121 120/120
f 121/121 122/122 120/120
f 121/121 123/123 122/122
f 123/123 124/124 122/122
f 123/123 125/125 124/124
f 125/125 126/126 124/124
f 127/127 128/128 129/129
f 128/128 130/130 129/129
# num_faces: 90
