mtllib CI9WPBCW6OSH40XR4VHOCSIT2.mtl
v -1.250000 0.259598 -0.327310
v -1.250000 -0.259598 -0.327310
v -1.250000 0.259598 0.430871
v -1.250000 -0.259598 0.430871
v 1.250000 0.259598 0.430871
v -1.250000 0.259598 0.430871
v 1.250000 -0.259598 0.430871
v -1.250000 -0.259598 0.430871
v -0.399976 -0.259598 -0.327310
v -1.250000 -0.259598 -0.327310
v -0.399976 0.259598 -0.327310
v -1.250000 0.259598 -0.327310
v -1.090010 0.094480 -0.407296
v -1.090010 0.089915 -0.408980
v -1.090010 0.028027 -0.323942
v -1.090010 0.023462 -0.325626
v 0.349902 0.087378 -0.374881
v 0.349902 0.082813 -0.373197
v -0.007938 0.087378 -0.374881
v -0.007938 0.082813 -0.373197
v 0.349902 0.138866 -0.254060
v 0.349902 0.134301 -0.251955
v 0.349902 0.087378 -0.374881
v 0.349902 0.082813 -0.373197
v -0.007938 0.138866 -0.254060
v -0.007938 0.134301 -0.251955
v 0.349902 0.138866 -0.254060
v 0.349902 0.134301 -0.251955
v -0.007938 0.087378 -0.374881
v -0.007938 0.082813 -0.373197
v -0.007938 0.138866 -0.254060
v -0.007938 0.134301 -0.251955
v 0.349902 0.087378 -0.374881
v -0.007938 0.087378 -0.374881
v 0.349902 0.138866 -0.254060
v -0.007938 0.138866 -0.254060
v -0.007938 0.134301 -0.251955
v -0.007938 0.082813 -0.373197
v 0.349902 0.134301 -0.251955
v 0.349902 0.082813 -0.373197
v 0.065340 0.090168 -0.352148
v 0.065340 0.094226 -0.349622
v 0.065339 0.007990 -0.283949
v 0.065339 0.012048 -0.281424
v 0.065339 0.007990 -0.283949
v 0.065339 0.012048 -0.281424
v 0.054348 0.007990 -0.283949
v 0.054348 0.012048 -0.281424
v 0.054348 0.007990 -0.283949
v 0.054348 0.012048 -0.281424
v 0.054348 0.090168 -0.352148
v 0.054348 0.094226 -0.349622
v 0.054348 0.012048 -0.281424
v 0.065339 0.012048 -0.281424
v 0.054348 0.094226 -0.349622
v 0.065340 0.094226 -0.349622
v 0.065340 0.090168 -0.352148
v 0.065339 0.007990 -0.283949
v 0.054348 0.090168 -0.352148
v 0.054348 0.007990 -0.283949
v 0.272960 0.090168 -0.352148
v 0.272960 0.094226 -0.349622
v 0.283952 0.090168 -0.352148
v 0.283952 0.094226 -0.349622
v 0.283952 0.090168 -0.352148
v 0.283952 0.094226 -0.349622
v 0.283952 0.007990 -0.283949
v 0.283952 0.012048 -0.281424
v 0.283952 0.007990 -0.283949
v 0.283952 0.012048 -0.281424
v 0.272960 0.007990 -0.283949
v 0.272960 0.012048 -0.281424
v 0.272960 0.007990 -0.283949
v 0.272960 0.012048 -0.281424
v 0.272960 0.090168 -0.352148
v 0.272960 0.094226 -0.349622
v 0.272960 0.012048 -0.281424
v 0.283952 0.012048 -0.281424
v 0.272960 0.094226 -0.349622
v 0.283952 0.094226 -0.349622
v 0.283952 0.090168 -0.352148
v 0.283952 0.007990 -0.283949
v 0.272960 0.090168 -0.352148
v 0.272960 0.007990 -0.283949
v -1.090010 0.089915 -0.408980
v -1.090010 0.094480 -0.407296
v -1.081461 0.089915 -0.408980
v -1.081461 0.094480 -0.407296
v -1.081461 0.028027 -0.323942
v -1.081461 0.023462 -0.325626
v -1.081461 0.094480 -0.407296
v -1.081461 0.089915 -0.408980
v 1.250000 -0.259598 -0.286054
v 1.250000 0.259598 -0.286054
v 1.250000 -0.259598 0.430871
v 1.250000 0.259598 0.430871
v -1.081461 0.023462 -0.325626
v -1.081461 0.028027 -0.323942
v -1.090010 0.023462 -0.325626
v -1.090010 0.028027 -0.323942
v -0.399976 -0.259598 -0.327310
v -0.399976 -0.259598 -0.286054
v -1.250000 -0.259598 -0.327310
v -1.250000 -0.259598 0.430871
v 1.250000 -0.259598 0.430871
v 1.250000 -0.259598 -0.286054
v -1.136419 0.153577 -0.320154
v -1.136419 0.078247 -0.427924
v -0.871397 0.153577 -0.320154
v -0.871397 0.078247 -0.427924
v -1.090010 0.023462 -0.325626
v -1.090010 0.089915 -0.408980
v -1.081461 0.023462 -0.325626
v -1.081461 0.089915 -0.408980
v -0.927577 0.023462 -0.325626
v -0.927577 0.028027 -0.323942
v -0.927577 0.089915 -0.408980
v -0.927577 0.094480 -0.407296
v -0.927577 0.028027 -0.323942
v -0.920249 0.028027 -0.323942
v -0.927577 0.094480 -0.407296
v -0.920249 0.094480 -0.407296
v -0.920249 0.089915 -0.408980
v -0.920249 0.023462 -0.325626
v -0.927577 0.089915 -0.408980
v -0.927577 0.023462 -0.325626
v 0.054348 0.090168 -0.352148
v 0.054348 0.094226 -0.349622
v 0.065340 0.090168 -0.352148
v 0.065340 0.094226 -0.349622
v -0.871397 0.078247 -0.427924
v -0.871397 0.082559 -0.430871
v -0.871397 0.153577 -0.320154
v -0.871397 0.157636 -0.323100
v -0.871397 0.153577 -0.320154
v -0.871397 0.157636 -0.323100
v -1.136419 0.153577 -0.320154
v -1.136419 0.157636 -0.323100
v -1.136419 0.153577 -0.320154
v -1.136419 0.157636 -0.323100
v -1.136419 0.078247 -0.427924
v -1.136419 0.082559 -0.430871
v -1.136419 0.157636 -0.323100
v -0.871397 0.157636 -0.323100
v -1.136419 0.082559 -0.430871
v -0.871397 0.082559 -0.430871
v -0.399976 0.259598 -0.286054
v -0.399976 -0.259598 -0.286054
v -0.399976 0.259598 -0.327310
v -0.399976 -0.259598 -0.327310
v -0.927577 0.028027 -0.323942
v -0.927577 0.023462 -0.325626
v -0.920249 0.028027 -0.323942
v -0.920249 0.023462 -0.325626
v 1.201148 0.230683 0.377407
v -1.201148 0.230683 0.377407
v 1.201148 0.259598 0.377407
v -1.201148 0.259598 0.377407
v -0.399976 0.259598 -0.286054
v 1.250000 0.259598 -0.286054
v -0.399976 -0.259598 -0.286054
v 1.250000 -0.259598 -0.286054
v 1.201148 0.259598 0.377407
v 1.201148 0.259598 -0.273846
v 1.201148 0.230683 0.377407
v 1.201148 0.230683 -0.273846
v -1.201148 0.230683 -0.273846
v -1.201148 0.230683 0.377407
v 1.201148 0.230683 -0.273846
v 1.201148 0.230683 0.377407
v -1.090010 0.028027 -0.323942
v -1.081461 0.028027 -0.323942
v -1.090010 0.094480 -0.407296
v -1.081461 0.094480 -0.407296
v -1.136419 0.078247 -0.427924
v -1.136419 0.082559 -0.430871
v -0.871397 0.078247 -0.427924
v -0.871397 0.082559 -0.430871
v -1.201148 0.230683 -0.273846
v -1.201148 0.259598 -0.273846
v -1.201148 0.230683 0.377407
v -1.201148 0.259598 0.377407
v -0.920249 0.089915 -0.408980
v -0.920249 0.094480 -0.407296
v -0.920249 0.023462 -0.325626
v -0.920249 0.028027 -0.323942
v -0.920249 0.094480 -0.407296
v -0.920249 0.089915 -0.408980
v -0.927577 0.094480 -0.407296
v -0.927577 0.089915 -0.408980
v -1.201148 0.230683 -0.273846
v 1.201148 0.230683 -0.273846
v -1.201148 0.259598 -0.273846
v 1.201148 0.259598 -0.273846
v -0.399976 0.259598 -0.327310
v -1.250000 0.259598 -0.327310
v -0.399976 0.259598 -0.286054
v -1.201148 0.259598 -0.273846
v 1.201148 0.259598 -0.273846
v -1.201148 0.259598 0.377407
v -1.250000 0.259598 0.430871
v 1.201148 0.259598 0.377407
v 1.250000 0.259598 0.430871
v 1.250000 0.259598 -0.286054
# num_vertices: 204

vt 0.713285 0.994953
vt 0.713285 0.003725
vt 0.999511 0.994953
vt 0.999511 0.003725
vt 0.999389 0.995075
vt 0.160337 0.995075
vt 0.999389 0.003603
vt 0.160337 0.003603
vt 0.714138 0.003847
vt 0.999389 0.003847
vt 0.714138 0.995318
vt 0.999389 0.995318
vt 0.504345 0.186912
vt 0.504345 0.500738
vt 0.533601 0.186912
vt 0.533601 0.500738
vt 0.581996 0.625417
vt 0.496055 0.625417
vt 0.570172 0.712996
vt 0.484109 0.712996
vt 0.581996 0.625417
vt 0.496055 0.625417
vt 0.570172 0.712996
vt 0.484109 0.712996
vt 0.581996 0.625417
vt 0.496055 0.625417
vt 0.570172 0.712996
vt 0.484109 0.712996
vt 0.581996 0.625417
vt 0.496055 0.625417
vt 0.570172 0.712996
vt 0.484109 0.712996
vt 0.581996 0.625417
vt 0.496055 0.625417
vt 0.570172 0.712996
vt 0.484109 0.712996
vt 0.496055 0.625417
vt 0.484109 0.712996
vt 0.581996 0.625417
vt 0.570172 0.712996
vt 0.533601 0.500738
vt 0.533601 0.186912
vt 0.504345 0.500738
vt 0.504345 0.186912
vt 0.533601 0.500738
vt 0.533601 0.186912
vt 0.504345 0.500738
vt 0.504345 0.186912
vt 0.533601 0.500738
vt 0.533601 0.186912
vt 0.504345 0.500738
vt 0.504345 0.186912
vt 0.533601 0.500738
vt 0.533601 0.186912
vt 0.504345 0.500738
vt 0.504345 0.186912
vt 0.533601 0.186912
vt 0.504345 0.186912
vt 0.533601 0.500738
vt 0.504345 0.500738
vt 0.533601 0.500738
vt 0.533601 0.186912
vt 0.504345 0.500738
vt 0.504345 0.186912
vt 0.533601 0.500738
vt 0.533601 0.186912
vt 0.504345 0.500738
vt 0.504345 0.186912
vt 0.533601 0.500738
vt 0.533601 0.186912
vt 0.504345 0.500738
vt 0.504345 0.186912
vt 0.533601 0.500738
vt 0.533601 0.186912
vt 0.504345 0.500738
vt 0.504345 0.186912
vt 0.533601 0.500738
vt 0.533601 0.186912
vt 0.504345 0.500738
vt 0.504345 0.186912
vt 0.533601 0.186912
vt 0.504345 0.186912
vt 0.533601 0.500738
vt 0.504345 0.500738
vt 0.533601 0.500738
vt 0.533601 0.186912
vt 0.504345 0.500738
vt 0.504345 0.186912
vt 0.504345 0.186912
vt 0.504345 0.500738
vt 0.533601 0.186912
vt 0.533601 0.500738
vt 0.414381 0.003968
vt 0.414381 0.994953
vt 0.160337 0.003968
vt 0.160337 0.994953
vt 0.533601 0.500738
vt 0.533601 0.186912
vt 0.504345 0.500738
vt 0.504345 0.186912
vt 0.493374 0.358300
vt 0.493374 0.369612
vt 0.328562 0.358300
vt 0.328562 0.565084
vt 0.813244 0.565084
vt 0.813244 0.369612
vt 0.872611 0.650353
vt 0.872611 0.782087
vt 0.956723 0.650353
vt 0.956723 0.782087
vt 0.504345 0.500738
vt 0.533601 0.500738
vt 0.504345 0.186912
vt 0.533601 0.186912
vt 0.533601 0.500738
vt 0.533601 0.186912
vt 0.504345 0.500738
vt 0.504345 0.186912
vt 0.533601 0.500738
vt 0.533601 0.186912
vt 0.504345 0.500738
vt 0.504345 0.186912
vt 0.533601 0.186912
vt 0.504345 0.186912
vt 0.533601 0.500738
vt 0.504345 0.500738
vt 0.533601 0.500738
vt 0.533601 0.186912
vt 0.504345 0.500738
vt 0.504345 0.186912
vt 0.872611 0.782087
vt 0.956723 0.782087
vt 0.872611 0.650353
vt 0.956723 0.650353
vt 0.872611 0.782087
vt 0.956723 0.782087
vt 0.872611 0.650353
vt 0.956723 0.650353
vt 0.872611 0.782087
vt 0.956723 0.782087
vt 0.872611 0.650353
vt 0.956723 0.650353
vt 0.872611 0.782087
vt 0.956723 0.782087
vt 0.872611 0.650353
vt 0.956723 0.650353
vt 0.999511 0.994953
vt 0.999511 0.003725
vt 0.983907 0.994953
vt 0.983907 0.003725
vt 0.504345 0.186912
vt 0.504345 0.500738
vt 0.533601 0.186912
vt 0.533601 0.500738
vt 0.102556 0.995561
vt 0.102556 0.000927
vt 0.049772 0.995561
vt 0.049772 0.000927
vt 0.712066 0.994831
vt 0.160337 0.994831
vt 0.712066 0.003603
vt 0.160337 0.003603
vt 0.130837 0.658867
vt 0.028683 0.658867
vt 0.130837 0.706063
vt 0.028683 0.706063
vt 0.158509 0.001171
vt 0.001011 0.001171
vt 0.158509 0.997264
vt 0.001011 0.997264
vt 0.533601 0.500738
vt 0.533601 0.186912
vt 0.504345 0.500738
vt 0.504345 0.186912
vt 0.872611 0.782087
vt 0.956723 0.782087
vt 0.872611 0.650353
vt 0.956723 0.650353
vt 0.138639 0.706063
vt 0.138639 0.658867
vt 0.024173 0.706063
vt 0.024173 0.658867
vt 0.533601 0.500738
vt 0.533601 0.186912
vt 0.504345 0.500738
vt 0.504345 0.186912
vt 0.504345 0.186912
vt 0.504345 0.500738
vt 0.533601 0.186912
vt 0.533601 0.500738
vt 0.102312 0.995440
vt 0.102312 0.000927
vt 0.049650 0.995440
vt 0.049650 0.000927
vt 0.001011 0.339811
vt 0.001011 0.001171
vt 0.009545 0.339811
vt 0.012104 0.020633
vt 0.012104 0.977924
vt 0.147416 0.020633
vt 0.158509 0.001171
vt 0.147416 0.977924
vt 0.158509 0.997264
vt 0.009545 0.997264
# num_vertices: 204


g Object_TexMap_0

usemtl TexMap

f 1/1 2/2 3/3
f 2/2 4/4 3/3
f 5/5 6/6 7/7
f 6/6 8/8 7/7
f 9/9 10/10 11/11
f 10/10 12/12 11/11
f 13/13 14/14 15/15
f 14/14 16/16 15/15
f 17/17 18/18 19/19
f 18/18 20/20 19/19
f 21/21 22/22 23/23
f 22/22 24/24 23/23
f 25/25 26/26 27/27
f 26/26 28/28 27/27
f 29/29 30/30 31/31
f 30/30 32/32 31/31
f 33/33 34/34 35/35
f 34/34 36/36 35/35
f 37/37 38/38 39/39
f 38/38 40/40 39/39
f 41/41 42/42 43/43
f 42/42 44/44 43/43
f 45/45 46/46 47/47
f 46/46 48/48 47/47
f 49/49 50/50 51/51
f 50/50 52/52 51/51
f 53/53 54/54 55/55
f 54/54 56/56 55/55
f 57/57 58/58 59/59
f 58/58 60/60 59/59
f 61/61 62/62 63/63
f 62/62 64/64 63/63
f 65/65 66/66 67/67
f 66/66 68/68 67/67
f 69/69 70/70 71/71
f 70/70 72/72 71/71
f 73/73 74/74 75/75
f 74/74 76/76 75/75
f 77/77 78/78 79/79
f 78/78 80/80 79/79
f 81/81 82/82 83/83
f 82/82 84/84 83/83
f 85/85 86/86 87/87
f 86/86 88/88 87/87
f 89/89 90/90 91/91
f 90/90 92/92 91/91
f 93/93 94/94 95/95
f 94/94 96/96 95/95
f 97/97 98/98 99/99
f 98/98 100/100 99/99
f 101/101 102/102 103/103
f 102/102 104/104 103/103
f 104/104 102/102 105/105
f 102/102 106/106 105/105
f 107/107 108/108 109/109
f 108/108 110/110 109/109
f 111/111 112/112 113/113
f 112/112 114/114 113/113
f 115/115 116/116 117/117
f 116/116 118/118 117/117
f 119/119 120/120 121/121
f 120/120 122/122 121/121
f 123/123 124/124 125/125
f 124/124 126/126 125/125
f 127/127 128/128 129/129
f 128/128 130/130 129/129
f 131/131 132/132 133/133
f 132/132 134/134 133/133
f 135/135 136/136 137/137
f 136/136 138/138 137/137
f 139/139 140/140 141/141
f 140/140 142/142 141/141
f 143/143 144/144 145/145
f 144/144 146/146 145/145
f 147/147 148/148 149/149
f 148/148 150/150 149/149
f 151/151 152/152 153/153
f 152/152 154/154 153/153
f 155/155 156/156 157/157
f 156/156 158/158 157/157
f 159/159 160/160 161/161
f 160/160 162/162 161/161
f 163/163 164/164 165/165
f 164/164 166/166 165/165
f 167/167 168/168 169/169
f 168/168 170/170 169/169
f 171/171 172/172 173/173
f 172/172 174/174 173/173
f 175/175 176/176 177/177
f 176/176 178/178 177/177
f 179/179 180/180 181/181
f 180/180 182/182 181/181
f 183/183 184/184 185/185
f 184/184 186/186 185/185
f 187/187 188/188 189/189
f 188/188 190/190 189/189
f 191/191 192/192 193/193
f 192/192 194/194 193/193
f 195/195 196/196 197/197
f 196/196 198/198 197/197
f 197/197 198/198 199/199
f 198/198 196/196 200/200
f 196/196 201/201 200/200
f 200/200 201/201 202/202
f 201/201 203/203 202/202
f 202/202 203/203 199/199
f 203/203 204/204 199/199
f 199/199 204/204 197/197
# num_faces: 108
