mtllib PCYDSWDVW6QWH7ZO3C9POFL8Y.mtl
v -1.180386 0.645764 0.863714
v 1.228017 0.645764 0.863714
v -1.180386 0.645764 -0.834704
v 1.228017 0.645764 -0.834704
v -1.180386 0.645764 0.863714
v -1.180386 -0.697562 0.863714
v 1.228017 0.645764 0.863714
v 1.228017 -0.697562 0.863714
v -1.180386 0.330890 0.367024
v -1.180386 0.099165 0.367024
v -1.151075 0.330890 0.367024
v -1.151075 0.099165 0.367024
v -0.368222 0.099165 -0.809210
v -0.605154 0.099165 -0.809210
v -0.368222 0.330890 -0.809210
v -0.605154 0.330890 -0.809210
v 0.198461 -0.232748 -0.827671
v 0.198461 -0.232748 -0.898878
v 0.155716 -0.204123 -0.827671
v 0.155716 -0.204123 -0.898878
v 0.104421 -0.194581 -0.827671
v 0.104421 -0.194581 -0.898878
v 0.053126 -0.204123 -0.827671
v 0.053126 -0.204123 -0.898878
v 0.010381 -0.232748 -0.827671
v 0.010381 -0.232748 -0.898878
v -0.605154 0.330890 -0.809210
v -0.605154 0.330890 -0.834704
v -0.368222 0.330890 -0.809210
v -0.368222 0.330890 -0.834704
v -1.151075 0.333616 -0.124392
v -1.151075 0.333616 -0.381968
v -1.151075 0.099165 -0.124392
v -1.151075 0.099165 -0.381968
v 0.010381 -0.232748 -0.827671
v 0.010381 -0.232748 -0.898878
v -0.018930 -0.275685 -0.827671
v -0.018930 -0.275685 -0.898878
v -0.028701 -0.326120 -0.827671
v -0.028701 -0.326120 -0.898878
v 0.155716 -0.204123 -0.898878
v 0.198461 -0.232748 -0.898878
v 0.104421 -0.194581 -0.898878
v 0.053126 -0.204123 -0.898878
v 0.010381 -0.232748 -0.898878
v 0.226551 -0.275685 -0.898878
v 0.237543 -0.326120 -0.898878
v -0.018930 -0.275685 -0.898878
v -0.028701 -0.326120 -0.898878
v -0.028701 -0.326120 -0.827671
v -0.028701 -0.326120 -0.898878
v 0.237543 -0.326120 -0.827671
v 0.237543 -0.326120 -0.898878
v -0.018930 0.099165 -0.809210
v -0.018930 0.333616 -0.809210
v -0.018930 0.099165 -0.834704
v -0.018930 0.333616 -0.834704
v -1.250000 -0.214346 0.406583
v -1.250000 -0.362241 0.406583
v -1.250000 -0.214346 0.617566
v -1.250000 -0.362241 0.617566
v -1.182829 -0.214346 0.617566
v -1.182829 -0.362241 0.617566
v -1.182829 -0.214346 0.406583
v -1.182829 -0.362241 0.406583
v -1.250000 -0.214346 0.406583
v -1.250000 -0.214346 0.617566
v -1.182829 -0.214346 0.406583
v -1.182829 -0.214346 0.617566
v -1.182829 -0.362241 0.617566
v -1.250000 -0.362241 0.617566
v -1.182829 -0.362241 0.406583
v -1.250000 -0.362241 0.406583
v -1.186493 -0.180950 -0.836462
v -1.186493 -0.697562 -0.836462
v -1.186493 -0.180950 0.858439
v -1.186493 -0.697562 0.858439
v -1.180386 -0.180950 -0.836462
v -1.180386 -0.697562 -0.836462
v -1.186493 -0.180950 -0.836462
v -1.186493 -0.697562 -0.836462
v -1.180386 -0.180950 0.858439
v -1.180386 -0.697562 0.858439
v -1.180386 -0.180950 -0.836462
v -1.180386 -0.697562 -0.836462
v -1.186493 -0.180950 0.858439
v -1.186493 -0.697562 0.858439
v -1.180386 -0.180950 0.858439
v -1.180386 -0.697562 0.858439
v -1.186493 -0.180950 -0.836462
v -1.186493 -0.180950 0.858439
v -1.180386 -0.180950 -0.836462
v -1.180386 -0.180950 0.858439
v -1.180386 -0.697562 0.858439
v -1.186493 -0.697562 0.858439
v -1.180386 -0.697562 -0.836462
v -1.186493 -0.697562 -0.836462
v -0.845750 -0.218435 -0.899757
v -0.845750 -0.354744 -0.899757
v -1.030166 -0.218435 -0.899757
v -1.030166 -0.354744 -0.899757
v -0.845750 -0.218435 -0.832067
v -0.845750 -0.354744 -0.832067
v -0.845750 -0.218435 -0.899757
v -0.845750 -0.354744 -0.899757
v -1.030166 -0.218435 -0.832067
v -1.030166 -0.354744 -0.832067
v -0.845750 -0.218435 -0.832067
v -0.845750 -0.354744 -0.832067
v -1.030166 -0.218435 -0.899757
v -1.030166 -0.354744 -0.899757
v -1.030166 -0.218435 -0.832067
v -1.030166 -0.354744 -0.832067
v -0.845750 -0.218435 -0.899757
v -1.030166 -0.218435 -0.899757
v -0.845750 -0.218435 -0.832067
v -1.030166 -0.218435 -0.832067
v -1.030166 -0.354744 -0.832067
v -1.030166 -0.354744 -0.899757
v -0.845750 -0.354744 -0.832067
v -0.845750 -0.354744 -0.899757
v 1.250000 0.697562 -0.870747
v 1.250000 0.645764 -0.870747
v -1.202369 0.697562 -0.870747
v -1.202369 0.645764 -0.870747
v 1.250000 0.697562 0.899757
v 1.250000 0.645764 0.899757
v 1.250000 0.697562 -0.870747
v 1.250000 0.645764 -0.870747
v -1.202369 0.697562 0.899757
v -1.202369 0.645764 0.899757
v 1.250000 0.697562 0.899757
v 1.250000 0.645764 0.899757
v -1.202369 0.697562 -0.870747
v -1.202369 0.645764 -0.870747
v -1.202369 0.697562 0.899757
v -1.202369 0.645764 0.899757
v 1.250000 0.697562 -0.870747
v -1.202369 0.697562 -0.870747
v 1.250000 0.697562 0.899757
v -1.202369 0.697562 0.899757
v -1.202369 0.645764 0.899757
v -1.202369 0.645764 -0.870747
v 1.250000 0.645764 0.899757
v 1.250000 0.645764 -0.870747
v -1.250000 -0.214346 0.617566
v -1.250000 -0.362241 0.617566
v -1.182829 -0.214346 0.617566
v -1.182829 -0.362241 0.617566
v -0.018930 0.099165 -0.834704
v -0.255862 0.099165 -0.834704
v -0.018930 0.099165 -0.809210
v -0.255862 0.099165 -0.809210
v 0.237543 -0.326120 -0.827671
v 0.237543 -0.326120 -0.898878
v 0.226551 -0.275685 -0.827671
v 0.226551 -0.275685 -0.898878
v 0.198461 -0.232748 -0.827671
v 0.198461 -0.232748 -0.898878
v -0.255862 0.333616 -0.809210
v -0.255862 0.099165 -0.809210
v -0.255862 0.333616 -0.834704
v -0.255862 0.099165 -0.834704
v 1.057035 -0.697562 -0.834704
v 1.057035 -0.245016 -0.834704
v 1.228017 -0.697562 -0.834704
v 1.228017 0.645764 -0.834704
v 1.015510 0.099165 -0.834704
v 0.550195 -0.245016 -0.834704
v 0.778578 0.099165 -0.834704
v 0.671104 0.099165 -0.834704
v 0.778578 0.333616 -0.834704
v 0.671104 0.333616 -0.834704
v -1.180386 0.645764 -0.834704
v 0.432951 0.333616 -0.834704
v 0.326698 0.333616 -0.834704
v 0.326698 0.099165 -0.834704
v 1.015510 0.333616 -0.834704
v -1.151075 0.330890 0.623720
v -1.151075 0.099165 0.623720
v -1.180386 0.330890 0.623720
v -1.180386 0.099165 0.623720
v -1.180386 0.330890 -0.007472
v -1.180386 0.099165 -0.007472
v -1.151075 0.330890 -0.007472
v -1.151075 0.099165 -0.007472
v 0.089765 0.333616 -0.834704
v -0.018930 0.333616 -0.834704
v -0.255862 0.333616 -0.834704
v -0.368222 0.330890 -0.834704
v -0.255862 0.099165 -0.834704
v -0.368222 0.099165 -0.834704
v 0.009160 -0.337706 -0.834704
v -0.605154 0.099165 -0.834704
v -0.716292 0.099165 -0.834704
v -0.605154 0.330890 -0.834704
v -0.716292 0.330890 -0.834704
v -0.954445 0.330890 -0.834704
v -1.180386 -0.697562 -0.834704
v -0.954445 0.099165 -0.834704
v 0.009160 -0.697562 -0.834704
v -0.018930 0.099165 -0.834704
v 0.089765 0.099165 -0.834704
v 0.214338 -0.337706 -0.834704
v 0.432951 0.099165 -0.834704
v -0.255862 0.333616 -0.809210
v -0.018930 0.333616 -0.809210
v -0.255862 0.099165 -0.809210
v -0.018930 0.099165 -0.809210
v 0.009160 -0.697562 -0.834704
v 0.009160 -0.697562 -0.809210
v -1.180386 -0.697562 -0.834704
v -1.180386 -0.697562 0.863714
v 0.214338 -0.697562 -0.809210
v 0.550195 -0.697562 -0.809210
v 1.057035 -0.697562 -0.809210
v 1.228017 -0.697562 0.863714
v 1.228017 -0.697562 -0.834704
v 0.214338 -0.697562 -0.834704
v 0.550195 -0.697562 -0.834704
v -1.151075 0.099165 -0.751189
v -1.151075 0.333616 -0.751189
v -1.180386 0.099165 -0.751189
v -1.180386 0.333616 -0.751189
v -0.018930 0.333616 -0.809210
v -0.255862 0.333616 -0.809210
v -0.018930 0.333616 -0.834704
v -0.255862 0.333616 -0.834704
v -1.180386 0.099165 -0.007472
v -1.180386 0.099165 0.249224
v -1.151075 0.099165 -0.007472
v -1.151075 0.099165 0.249224
v 0.326698 0.099165 -0.809210
v 0.326698 0.333616 -0.809210
v 0.326698 0.099165 -0.834704
v 0.326698 0.333616 -0.834704
v 0.326698 0.099165 -0.834704
v 0.089765 0.099165 -0.834704
v 0.326698 0.099165 -0.809210
v 0.089765 0.099165 -0.809210
v -1.151075 0.333616 -0.124392
v -1.151075 0.099165 -0.124392
v -1.180386 0.333616 -0.124392
v -1.180386 0.099165 -0.124392
v -0.605154 0.330890 -0.809210
v -0.605154 0.099165 -0.809210
v -0.605154 0.330890 -0.834704
v -0.605154 0.099165 -0.834704
v 0.550195 -0.245016 -0.809210
v 0.550195 -0.245016 -0.834704
v 1.057035 -0.245016 -0.809210
v 1.057035 -0.245016 -0.834704
v 0.550195 -0.245016 -0.809210
v 0.550195 -0.697562 -0.809210
v 0.550195 -0.245016 -0.834704
v 0.550195 -0.697562 -0.834704
v 1.057035 -0.697562 -0.809210
v 0.550195 -0.697562 -0.809210
v 1.057035 -0.245016 -0.809210
v 0.550195 -0.245016 -0.809210
v 1.057035 -0.697562 -0.809210
v 1.057035 -0.245016 -0.809210
v 1.057035 -0.697562 -0.834704
v 1.057035 -0.245016 -0.834704
v 0.009160 -0.337706 -0.809210
v 0.009160 -0.337706 -0.834704
v 0.214338 -0.337706 -0.809210
v 0.214338 -0.337706 -0.834704
v 0.009160 -0.337706 -0.809210
v 0.009160 -0.697562 -0.809210
v 0.009160 -0.337706 -0.834704
v 0.009160 -0.697562 -0.834704
v 0.009160 -0.697562 -0.809210
v 0.009160 -0.337706 -0.809210
v 0.214338 -0.697562 -0.809210
v 0.214338 -0.337706 -0.809210
v 0.214338 -0.697562 -0.809210
v 0.214338 -0.337706 -0.809210
v 0.214338 -0.697562 -0.834704
v 0.214338 -0.337706 -0.834704
v 1.015510 0.333616 -0.809210
v 0.778578 0.333616 -0.809210
v 1.015510 0.333616 -0.834704
v 0.778578 0.333616 -0.834704
v 0.778578 0.333616 -0.809210
v 1.015510 0.333616 -0.809210
v 0.778578 0.099165 -0.809210
v 1.015510 0.099165 -0.809210
v 0.778578 0.333616 -0.809210
v 0.778578 0.099165 -0.809210
v 0.778578 0.333616 -0.834704
v 0.778578 0.099165 -0.834704
v 1.015510 0.099165 -0.834704
v 0.778578 0.099165 -0.834704
v 1.015510 0.099165 -0.809210
v 0.778578 0.099165 -0.809210
v 1.015510 0.099165 -0.809210
v 1.015510 0.333616 -0.809210
v 1.015510 0.099165 -0.834704
v 1.015510 0.333616 -0.834704
v 0.671104 0.333616 -0.809210
v 0.432951 0.333616 -0.809210
v 0.671104 0.333616 -0.834704
v 0.432951 0.333616 -0.834704
v 0.432951 0.333616 -0.809210
v 0.671104 0.333616 -0.809210
v 0.432951 0.099165 -0.809210
v 0.671104 0.099165 -0.809210
v 0.432951 0.333616 -0.809210
v 0.432951 0.099165 -0.809210
v 0.432951 0.333616 -0.834704
v 0.432951 0.099165 -0.834704
v 0.671104 0.099165 -0.834704
v 0.432951 0.099165 -0.834704
v 0.671104 0.099165 -0.809210
v 0.432951 0.099165 -0.809210
v 0.671104 0.099165 -0.809210
v 0.671104 0.333616 -0.809210
v 0.671104 0.099165 -0.834704
v 0.671104 0.333616 -0.834704
v 0.326698 0.333616 -0.809210
v 0.089765 0.333616 -0.809210
v 0.326698 0.333616 -0.834704
v 0.089765 0.333616 -0.834704
v 0.089765 0.333616 -0.809210
v 0.326698 0.333616 -0.809210
v 0.089765 0.099165 -0.809210
v 0.326698 0.099165 -0.809210
v 0.089765 0.333616 -0.809210
v 0.089765 0.099165 -0.809210
v 0.089765 0.333616 -0.834704
v 0.089765 0.099165 -0.834704
v -1.250000 -0.362241 0.406583
v -1.250000 -0.214346 0.406583
v -1.182829 -0.362241 0.406583
v -1.182829 -0.214346 0.406583
v -1.180386 0.333616 -0.124392
v -1.180386 0.333616 -0.381968
v -1.151075 0.333616 -0.124392
v -1.151075 0.333616 -0.381968
v -1.151075 0.333616 -0.493614
v -1.151075 0.099165 -0.493614
v -1.180386 0.333616 -0.493614
v -1.180386 0.099165 -0.493614
v -1.151075 0.330890 0.249224
v -1.151075 0.099165 0.249224
v -1.180386 0.330890 0.249224
v -1.180386 0.099165 0.249224
v -1.151075 0.333616 -0.493614
v -1.151075 0.333616 -0.751189
v -1.151075 0.099165 -0.493614
v -1.151075 0.099165 -0.751189
v -1.151075 0.330890 0.623720
v -1.180386 0.330890 0.623720
v -1.151075 0.330890 0.367024
v -1.180386 0.330890 0.367024
v -1.151075 0.330890 0.249224
v -1.151075 0.330890 -0.007472
v -1.151075 0.099165 0.249224
v -1.151075 0.099165 -0.007472
v -0.716292 0.099165 -0.809210
v -0.716292 0.330890 -0.809210
v -0.716292 0.099165 -0.834704
v -0.716292 0.330890 -0.834704
v -1.151075 0.099165 0.623720
v -1.151075 0.099165 0.367024
v -1.180386 0.099165 0.623720
v -1.180386 0.099165 0.367024
v -0.605154 0.099165 -0.809210
v -0.368222 0.099165 -0.809210
v -0.605154 0.099165 -0.834704
v -0.368222 0.099165 -0.834704
v -0.368222 0.330890 -0.834704
v -0.368222 0.099165 -0.834704
v -0.368222 0.330890 -0.809210
v -0.368222 0.099165 -0.809210
v -0.954445 0.330890 -0.834704
v -0.716292 0.330890 -0.834704
v -0.954445 0.330890 -0.809210
v -0.716292 0.330890 -0.809210
v -0.716292 0.099165 -0.809210
v -0.954445 0.099165 -0.809210
v -0.716292 0.330890 -0.809210
v -0.954445 0.330890 -0.809210
v -0.954445 0.099165 -0.834704
v -0.954445 0.330890 -0.834704
v -0.954445 0.099165 -0.809210
v -0.954445 0.330890 -0.809210
v -0.954445 0.099165 -0.809210
v -0.716292 0.099165 -0.809210
v -0.954445 0.099165 -0.834704
v -0.716292 0.099165 -0.834704
v 1.228017 0.645764 0.863714
v 1.228017 -0.697562 0.863714
v 1.228017 0.645764 -0.834704
v 1.228017 -0.697562 -0.834704
v -1.151075 0.099165 -0.124392
v -1.151075 0.099165 -0.381968
v -1.180386 0.099165 -0.124392
v -1.180386 0.099165 -0.381968
v -1.180386 0.333616 -0.493614
v -1.180386 0.333616 -0.751189
v -1.151075 0.333616 -0.493614
v -1.151075 0.333616 -0.751189
v -1.151075 0.330890 -0.007472
v -1.151075 0.330890 0.249224
v -1.180386 0.330890 -0.007472
v -1.180386 0.330890 0.249224
v -1.151075 0.099165 -0.381968
v -1.151075 0.333616 -0.381968
v -1.180386 0.099165 -0.381968
v -1.180386 0.333616 -0.381968
v -1.151075 0.330890 0.623720
v -1.151075 0.330890 0.367024
v -1.151075 0.099165 0.623720
v -1.151075 0.099165 0.367024
v -1.180386 0.099165 -0.751189
v -1.180386 0.099165 -0.493614
v -1.151075 0.099165 -0.751189
v -1.151075 0.099165 -0.493614
v 0.550195 -0.697562 -0.834704
v 0.214338 -0.697562 -0.834704
v -1.180386 0.333616 -0.493614
v -1.180386 0.099165 -0.493614
v -1.180386 0.099165 -0.381968
v -1.180386 -0.697562 0.863714
v -1.180386 0.099165 -0.124392
v -1.180386 0.099165 -0.007472
v -1.180386 0.333616 -0.124392
v -1.180386 0.330890 -0.007472
v -1.180386 0.645764 0.863714
v -1.180386 0.330890 0.249224
v -1.180386 0.330890 0.367024
v -1.180386 0.099165 0.367024
v -1.180386 0.333616 -0.381968
v -1.180386 0.333616 -0.751189
v -1.180386 0.645764 -0.834704
v -1.180386 -0.697562 -0.834704
v -1.180386 0.099165 -0.751189
v -1.180386 0.330890 0.623720
v -1.180386 0.099165 0.623720
v -1.180386 0.099165 0.249224
v 1.057035 -0.697562 -0.834704
# num_vertices: 443

vt 0.999155 0.001008
vt 0.999155 0.796166
vt 0.000912 0.001008
vt 0.000912 0.796166
vt 0.000912 0.796166
vt 0.000912 0.001008
vt 0.999155 0.796166
vt 0.999155 0.001008
vt 0.230075 0.135384
vt 0.093114 0.135384
vt 0.230075 0.122702
vt 0.093114 0.122702
vt 0.663155 0.473518
vt 0.759869 0.473518
vt 0.663155 0.608503
vt 0.759869 0.608503
vt 0.884512 0.001496
vt 0.884512 0.033200
vt 0.859633 0.001496
vt 0.859633 0.033200
vt 0.830118 0.001496
vt 0.830118 0.033200
vt 0.800726 0.001496
vt 0.800726 0.033200
vt 0.775846 0.001496
vt 0.775846 0.033200
vt 0.197024 0.122581
vt 0.197024 0.133921
vt 0.131897 0.122581
vt 0.131897 0.133921
vt 0.328863 0.608869
vt 0.232758 0.608869
vt 0.328863 0.476323
vt 0.232758 0.476323
vt 0.941834 0.001496
vt 0.941834 0.033200
vt 0.916954 0.001496
vt 0.916954 0.033200
vt 0.887561 0.001496
vt 0.887561 0.033200
vt 0.897318 0.184769
vt 0.874756 0.173307
vt 0.924027 0.188793
vt 0.950615 0.184769
vt 0.973177 0.173307
vt 0.859633 0.156235
vt 0.854388 0.135994
vt 0.988300 0.156235
vt 0.993667 0.135994
vt 0.999155 0.001984
vt 0.999155 0.033322
vt 0.775602 0.001984
vt 0.775602 0.033322
vt 0.093114 0.122702
vt 0.230075 0.122702
vt 0.093114 0.133921
vt 0.230075 0.133921
vt 0.869999 0.283417
vt 0.869999 0.204889
vt 0.929028 0.283417
vt 0.929028 0.204889
vt 0.869999 0.283417
vt 0.869999 0.204889
vt 0.929028 0.283417
vt 0.929028 0.204889
vt 0.928906 0.281344
vt 0.928906 0.238665
vt 0.912197 0.281344
vt 0.912197 0.238665
vt 0.928906 0.238665
vt 0.912197 0.238665
vt 0.928906 0.281344
vt 0.912197 0.281344
vt 0.511925 0.305975
vt 0.511925 0.000886
vt 0.998667 0.305975
vt 0.998667 0.000886
vt 0.230075 0.122702
vt 0.093114 0.122702
vt 0.230075 0.137457
vt 0.093114 0.137457
vt 0.511925 0.305975
vt 0.511925 0.000886
vt 0.998667 0.305975
vt 0.998667 0.000886
vt 0.230075 0.122702
vt 0.093114 0.122702
vt 0.230075 0.137457
vt 0.093114 0.137457
vt 0.131897 0.137457
vt 0.197024 0.137457
vt 0.131897 0.122581
vt 0.197024 0.122581
vt 0.197024 0.137457
vt 0.197024 0.122581
vt 0.131897 0.137457
vt 0.131897 0.122581
vt 0.869999 0.283417
vt 0.869999 0.204889
vt 0.929028 0.283417
vt 0.929028 0.204889
vt 0.929028 0.283173
vt 0.929028 0.205011
vt 0.912319 0.283173
vt 0.912319 0.205011
vt 0.869999 0.283417
vt 0.869999 0.204889
vt 0.929028 0.283417
vt 0.929028 0.204889
vt 0.929028 0.283173
vt 0.929028 0.205011
vt 0.912319 0.283173
vt 0.912319 0.205011
vt 0.928906 0.281344
vt 0.928906 0.238665
vt 0.912197 0.281344
vt 0.912197 0.238665
vt 0.928906 0.238665
vt 0.912197 0.238665
vt 0.928906 0.281344
vt 0.912197 0.281344
vt 0.000302 0.999193
vt 0.000302 0.798361
vt 0.998057 0.999193
vt 0.998057 0.798361
vt 0.429846 0.999071
vt 0.429846 0.797995
vt 0.998179 0.999071
vt 0.998179 0.797995
vt 0.000302 0.999193
vt 0.000302 0.798361
vt 0.998057 0.999193
vt 0.998057 0.798361
vt 0.429846 0.999071
vt 0.429846 0.797995
vt 0.998179 0.999071
vt 0.998179 0.797995
vt 0.000302 0.798361
vt 0.998179 0.798361
vt 0.000302 0.999071
vt 0.998179 0.999071
vt 0.998179 0.798361
vt 0.998179 0.999071
vt 0.000302 0.798361
vt 0.000302 0.999071
vt 0.929028 0.283173
vt 0.929028 0.205011
vt 0.912319 0.283173
vt 0.912319 0.205011
vt 0.131897 0.126117
vt 0.197024 0.126117
vt 0.131897 0.137457
vt 0.197024 0.137457
vt 0.999277 0.001496
vt 0.999277 0.033200
vt 0.969884 0.001496
vt 0.969884 0.033200
vt 0.944883 0.001496
vt 0.944883 0.033200
vt 0.230075 0.137457
vt 0.093114 0.137457
vt 0.230075 0.126239
vt 0.093114 0.126239
vt 0.071527 0.001008
vt 0.071527 0.268906
vt 0.000912 0.001008
vt 0.000912 0.796166
vt 0.088845 0.472543
vt 0.281908 0.268906
vt 0.187145 0.472543
vt 0.231782 0.472543
vt 0.187145 0.611674
vt 0.231782 0.611674
vt 0.999155 0.796166
vt 0.330082 0.611674
vt 0.374232 0.611674
vt 0.374232 0.472543
vt 0.088845 0.611674
vt 0.230075 0.137457
vt 0.093114 0.137457
vt 0.230075 0.124775
vt 0.093114 0.124775
vt 0.230075 0.135384
vt 0.093114 0.135384
vt 0.230075 0.122702
vt 0.093114 0.122702
vt 0.472654 0.611674
vt 0.517901 0.611674
vt 0.616200 0.611674
vt 0.662301 0.609845
vt 0.616200 0.472543
vt 0.662301 0.472543
vt 0.505827 0.214156
vt 0.760601 0.472543
vt 0.807068 0.472543
vt 0.760601 0.609845
vt 0.807068 0.609845
vt 0.905490 0.609845
vt 0.999155 0.001008
vt 0.905490 0.472543
vt 0.505827 0.001008
vt 0.517901 0.472543
vt 0.472654 0.472543
vt 0.421308 0.214156
vt 0.330082 0.472543
vt 0.614493 0.610089
vt 0.518998 0.610089
vt 0.614493 0.474250
vt 0.518998 0.474250
vt 0.999155 0.393893
vt 0.984154 0.393893
vt 0.999155 0.001008
vt 0.000912 0.001008
vt 0.984154 0.461324
vt 0.984154 0.572288
vt 0.984154 0.739953
vt 0.000912 0.796166
vt 0.999155 0.796166
vt 0.999155 0.461324
vt 0.999155 0.572288
vt 0.093114 0.122702
vt 0.230075 0.122702
vt 0.093114 0.135384
vt 0.230075 0.135384
vt 0.131897 0.122581
vt 0.197024 0.122581
vt 0.131897 0.133921
vt 0.197024 0.133921
vt 0.131897 0.124775
vt 0.197024 0.124775
vt 0.131897 0.137457
vt 0.197024 0.137457
vt 0.093114 0.122702
vt 0.230075 0.122702
vt 0.093114 0.133921
vt 0.230075 0.133921
vt 0.131897 0.126117
vt 0.197024 0.126117
vt 0.131897 0.137457
vt 0.197024 0.137457
vt 0.230075 0.137457
vt 0.093114 0.137457
vt 0.230075 0.124775
vt 0.093114 0.124775
vt 0.230075 0.137457
vt 0.093114 0.137457
vt 0.230075 0.126239
vt 0.093114 0.126239
vt 0.369353 0.012958
vt 0.369353 0.039297
vt 0.307764 0.012958
vt 0.307764 0.039297
vt 0.652544 0.386942
vt 0.468141 0.386942
vt 0.652544 0.367310
vt 0.468141 0.367310
vt 0.071771 0.000886
vt 0.281908 0.000886
vt 0.071771 0.262931
vt 0.281908 0.262931
vt 0.468141 0.361091
vt 0.652544 0.361091
vt 0.468141 0.380845
vt 0.652544 0.380845
vt 0.369353 0.012958
vt 0.369353 0.039297
vt 0.307764 0.012958
vt 0.307764 0.039297
vt 0.657179 0.137701
vt 0.657179 0.000399
vt 0.672546 0.137701
vt 0.672546 0.000399
vt 0.503509 0.000643
vt 0.503509 0.198060
vt 0.423260 0.000643
vt 0.423260 0.198060
vt 0.677424 0.000399
vt 0.677424 0.137701
vt 0.661935 0.000399
vt 0.661935 0.137701
vt 0.131897 0.122581
vt 0.197024 0.122581
vt 0.131897 0.133921
vt 0.197024 0.133921
vt 0.328863 0.608869
vt 0.232758 0.608869
vt 0.328863 0.476323
vt 0.232758 0.476323
vt 0.230075 0.137457
vt 0.093114 0.137457
vt 0.230075 0.126239
vt 0.093114 0.126239
vt 0.131897 0.126117
vt 0.197024 0.126117
vt 0.131897 0.137457
vt 0.197024 0.137457
vt 0.093114 0.122702
vt 0.230075 0.122702
vt 0.093114 0.133921
vt 0.230075 0.133921
vt 0.131897 0.122581
vt 0.197024 0.122581
vt 0.131897 0.133921
vt 0.197024 0.133921
vt 0.328863 0.608869
vt 0.232758 0.608869
vt 0.328863 0.476323
vt 0.232758 0.476323
vt 0.230075 0.137457
vt 0.093114 0.137457
vt 0.230075 0.126239
vt 0.093114 0.126239
vt 0.131897 0.126117
vt 0.197024 0.126117
vt 0.131897 0.137457
vt 0.197024 0.137457
vt 0.093114 0.122702
vt 0.230075 0.122702
vt 0.093114 0.133921
vt 0.230075 0.133921
vt 0.131897 0.122581
vt 0.197024 0.122581
vt 0.131897 0.133921
vt 0.197024 0.133921
vt 0.471190 0.609357
vt 0.375207 0.609357
vt 0.471190 0.476810
vt 0.375207 0.476810
vt 0.230075 0.137457
vt 0.093114 0.137457
vt 0.230075 0.126239
vt 0.093114 0.126239
vt 0.912319 0.205011
vt 0.912319 0.283173
vt 0.929028 0.205011
vt 0.929028 0.283173
vt 0.197024 0.135384
vt 0.131897 0.135384
vt 0.197024 0.122581
vt 0.131897 0.122581
vt 0.230075 0.137457
vt 0.093114 0.137457
vt 0.230075 0.124775
vt 0.093114 0.124775
vt 0.230075 0.137457
vt 0.093114 0.137457
vt 0.230075 0.124775
vt 0.093114 0.124775
vt 0.328863 0.608869
vt 0.232758 0.608869
vt 0.328863 0.476323
vt 0.232758 0.476323
vt 0.197024 0.122581
vt 0.197024 0.135384
vt 0.131897 0.122581
vt 0.131897 0.135384
vt 0.759869 0.608503
vt 0.663155 0.608503
vt 0.759869 0.473518
vt 0.663155 0.473518
vt 0.093114 0.122702
vt 0.230075 0.122702
vt 0.093114 0.133921
vt 0.230075 0.133921
vt 0.197024 0.137457
vt 0.131897 0.137457
vt 0.197024 0.124775
vt 0.131897 0.124775
vt 0.197024 0.137457
vt 0.131897 0.137457
vt 0.197024 0.126117
vt 0.131897 0.126117
vt 0.230075 0.133921
vt 0.093114 0.133921
vt 0.230075 0.122702
vt 0.093114 0.122702
vt 0.197024 0.133921
vt 0.131897 0.133921
vt 0.197024 0.122581
vt 0.131897 0.122581
vt 0.808531 0.473640
vt 0.902075 0.473640
vt 0.808531 0.608016
vt 0.902075 0.608016
vt 0.093114 0.126239
vt 0.230075 0.126239
vt 0.093114 0.137457
vt 0.230075 0.137457
vt 0.197024 0.137457
vt 0.131897 0.137457
vt 0.197024 0.126117
vt 0.131897 0.126117
vt 0.342522 0.795556
vt 0.342522 0.001008
vt 0.999155 0.795556
vt 0.999155 0.001008
vt 0.197024 0.137457
vt 0.131897 0.137457
vt 0.197024 0.124775
vt 0.131897 0.124775
vt 0.197024 0.135384
vt 0.131897 0.135384
vt 0.197024 0.122581
vt 0.131897 0.122581
vt 0.131897 0.122581
vt 0.197024 0.122581
vt 0.131897 0.135384
vt 0.197024 0.135384
vt 0.093114 0.122702
vt 0.230075 0.122702
vt 0.093114 0.135384
vt 0.230075 0.135384
vt 0.902075 0.608016
vt 0.808531 0.608016
vt 0.902075 0.473640
vt 0.808531 0.473640
vt 0.131897 0.124775
vt 0.197024 0.124775
vt 0.131897 0.137457
vt 0.197024 0.137457
vt 0.281908 0.001008
vt 0.421308 0.001008
vt 0.474361 0.611186
vt 0.474361 0.472299
vt 0.517657 0.472299
vt 0.999155 0.001008
vt 0.617176 0.472299
vt 0.662179 0.472299
vt 0.617176 0.611186
vt 0.662179 0.609479
vt 0.999155 0.795556
vt 0.761577 0.609479
vt 0.807068 0.609479
vt 0.807068 0.472299
vt 0.517657 0.611186
vt 0.374720 0.611186
vt 0.342522 0.795556
vt 0.342522 0.001008
vt 0.374720 0.472299
vt 0.906465 0.609479
vt 0.906465 0.472299
vt 0.761577 0.472299
vt 0.999155 0.739953
# num_vertices: 443


g Object_TexMap_0

usemtl TexMap

f 1/1 2/2 3/3
f 2/2 4/4 3/3
f 5/5 6/6 7/7
f 6/6 8/8 7/7
f 9/9 10/10 11/11
f 10/10 12/12 11/11
f 13/13 14/14 15/15
f 14/14 16/16 15/15
f 17/17 18/18 19/19
f 18/18 20/20 19/19
f 19/19 20/20 21/21
f 20/20 22/22 21/21
f 21/21 22/22 23/23
f 22/22 24/24 23/23
f 23/23 24/24 25/25
f 24/24 26/26 25/25
f 27/27 28/28 29/29
f 28/28 30/30 29/29
f 31/31 32/32 33/33
f 32/32 34/34 33/33
f 35/35 36/36 37/37
f 36/36 38/38 37/37
f 37/37 38/38 39/39
f 38/38 40/40 39/39
f 41/41 42/42 43/43
f 42/42 44/44 43/43
f 44/44 42/42 45/45
f 42/42 46/46 45/45
f 45/45 46/46 47/47
f 45/45 47/47 48/48
f 47/47 49/49 48/48
f 50/50 51/51 52/52
f 51/51 53/53 52/52
f 54/54 55/55 56/56
f 55/55 57/57 56/56
f 58/58 59/59 60/60
f 59/59 61/61 60/60
f 62/62 63/63 64/64
f 63/63 65/65 64/64
f 66/66 67/67 68/68
f 67/67 69/69 68/68
f 70/70 71/71 72/72
f 71/71 73/73 72/72
f 74/74 75/75 76/76
f 75/75 77/77 76/76
f 78/78 79/79 80/80
f 79/79 81/81 80/80
f 82/82 83/83 84/84
f 83/83 85/85 84/84
f 86/86 87/87 88/88
f 87/87 89/89 88/88
f 90/90 91/91 92/92
f 91/91 93/93 92/92
f 94/94 95/95 96/96
f 95/95 97/97 96/96
f 98/98 99/99 100/100
f 99/99 101/101 100/100
f 102/102 103/103 104/104
f 103/103 105/105 104/104
f 106/106 107/107 108/108
f 107/107 109/109 108/108
f 110/110 111/111 112/112
f 111/111 113/113 112/112
f 114/114 115/115 116/116
f 115/115 117/117 116/116
f 118/118 119/119 120/120
f 119/119 121/121 120/120
f 122/122 123/123 124/124
f 123/123 125/125 124/124
f 126/126 127/127 128/128
f 127/127 129/129 128/128
f 130/130 131/131 132/132
f 131/131 133/133 132/132
f 134/134 135/135 136/136
f 135/135 137/137 136/136
f 138/138 139/139 140/140
f 139/139 141/141 140/140
f 142/142 143/143 144/144
f 143/143 145/145 144/144
f 146/146 147/147 148/148
f 147/147 149/149 148/148
f 150/150 151/151 152/152
f 151/151 153/153 152/152
f 154/154 155/155 156/156
f 155/155 157/157 156/156
f 156/156 157/157 158/158
f 157/157 159/159 158/158
f 160/160 161/161 162/162
f 161/161 163/163 162/162
f 164/164 165/165 166/166
f 165/165 167/167 166/166
f 167/167 165/165 168/168
f 165/165 169/169 168/168
f 168/168 169/169 170/170
f 169/169 171/171 170/170
f 170/170 171/171 172/172
f 171/171 173/173 172/172
f 172/172 173/173 174/174
f 173/173 175/175 174/174
f 174/174 175/175 176/176
f 175/175 177/177 176/176
f 172/172 174/174 178/178
f 174/174 167/167 178/178
f 178/178 167/167 168/168
f 179/179 180/180 181/181
f 180/180 182/182 181/181
f 183/183 184/184 185/185
f 184/184 186/186 185/185
f 176/176 187/187 174/174
f 187/187 188/188 174/174
f 174/174 188/188 189/189
f 174/174 189/189 190/190
f 189/189 191/191 190/190
f 190/190 191/191 192/192
f 191/191 193/193 192/192
f 192/192 193/193 194/194
f 193/193 195/195 194/194
f 194/194 195/195 196/196
f 195/195 197/197 196/196
f 196/196 197/197 174/174
f 197/197 198/198 174/174
f 174/174 198/198 199/199
f 198/198 200/200 199/199
f 199/199 200/200 201/201
f 200/200 195/195 201/201
f 201/201 195/195 193/193
f 191/191 202/202 193/193
f 202/202 203/203 193/193
f 193/193 203/203 204/204
f 203/203 177/177 204/204
f 204/204 177/177 205/205
f 177/177 175/175 205/205
f 203/203 202/202 187/187
f 202/202 188/188 187/187
f 206/206 207/207 208/208
f 207/207 209/209 208/208
f 210/210 211/211 212/212
f 211/211 213/213 212/212
f 211/211 214/214 213/213
f 214/214 215/215 213/213
f 213/213 215/215 216/216
f 213/213 216/216 217/217
f 216/216 218/218 217/217
f 219/219 220/220 214/214
f 220/220 215/215 214/214
f 221/221 222/222 223/223
f 222/222 224/224 223/223
f 225/225 226/226 227/227
f 226/226 228/228 227/227
f 229/229 230/230 231/231
f 230/230 232/232 231/231
f 233/233 234/234 235/235
f 234/234 236/236 235/235
f 237/237 238/238 239/239
f 238/238 240/240 239/239
f 241/241 242/242 243/243
f 242/242 244/244 243/243
f 245/245 246/246 247/247
f 246/246 248/248 247/247
f 249/249 250/250 251/251
f 250/250 252/252 251/251
f 253/253 254/254 255/255
f 254/254 256/256 255/255
f 257/257 258/258 259/259
f 258/258 260/260 259/259
f 261/261 262/262 263/263
f 262/262 264/264 263/263
f 265/265 266/266 267/267
f 266/266 268/268 267/267
f 269/269 270/270 271/271
f 270/270 272/272 271/271
f 273/273 274/274 275/275
f 274/274 276/276 275/275
f 277/277 278/278 279/279
f 278/278 280/280 279/279
f 281/281 282/282 283/283
f 282/282 284/284 283/283
f 285/285 286/286 287/287
f 286/286 288/288 287/287
f 289/289 290/290 291/291
f 290/290 292/292 291/291
f 293/293 294/294 295/295
f 294/294 296/296 295/295
f 297/297 298/298 299/299
f 298/298 300/300 299/299
f 301/301 302/302 303/303
f 302/302 304/304 303/303
f 305/305 306/306 307/307
f 306/306 308/308 307/307
f 309/309 310/310 311/311
f 310/310 312/312 311/311
f 313/313 314/314 315/315
f 314/314 316/316 315/315
f 317/317 318/318 319/319
f 318/318 320/320 319/319
f 321/321 322/322 323/323
f 322/322 324/324 323/323
f 325/325 326/326 327/327
f 326/326 328/328 327/327
f 329/329 330/330 331/331
f 330/330 332/332 331/331
f 333/333 334/334 335/335
f 334/334 336/336 335/335
f 337/337 338/338 339/339
f 338/338 340/340 339/339
f 341/341 342/342 343/343
f 342/342 344/344 343/343
f 345/345 346/346 347/347
f 346/346 348/348 347/347
f 349/349 350/350 351/351
f 350/350 352/352 351/351
f 353/353 354/354 355/355
f 354/354 356/356 355/355
f 357/357 358/358 359/359
f 358/358 360/360 359/359
f 361/361 362/362 363/363
f 362/362 364/364 363/363
f 365/365 366/366 367/367
f 366/366 368/368 367/367
f 369/369 370/370 371/371
f 370/370 372/372 371/371
f 373/373 374/374 375/375
f 374/374 376/376 375/375
f 377/377 378/378 379/379
f 378/378 380/380 379/379
f 381/381 382/382 383/383
f 382/382 384/384 383/383
f 385/385 386/386 387/387
f 386/386 388/388 387/387
f 389/389 390/390 391/391
f 390/390 392/392 391/391
f 393/393 394/394 395/395
f 394/394 396/396 395/395
f 397/397 398/398 399/399
f 398/398 400/400 399/399
f 401/401 402/402 403/403
f 402/402 404/404 403/403
f 405/405 406/406 407/407
f 406/406 408/408 407/407
f 409/409 410/410 411/411
f 410/410 412/412 411/411
f 413/413 414/414 415/415
f 414/414 416/416 415/415
f 417/417 418/418 419/419
f 418/418 420/420 419/419
f 171/171 169/169 205/205
f 169/169 204/204 205/205
f 169/169 421/421 204/204
f 421/421 422/422 204/204
f 423/423 424/424 425/425
f 424/424 426/426 425/425
f 425/425 426/426 427/427
f 426/426 428/428 427/427
f 427/427 428/428 429/429
f 428/428 430/430 429/429
f 429/429 430/430 431/431
f 430/430 432/432 431/431
f 431/431 432/432 433/433
f 432/432 434/434 433/433
f 429/429 431/431 435/435
f 431/431 423/423 435/435
f 435/435 423/423 425/425
f 423/423 431/431 436/436
f 431/431 437/437 436/436
f 436/436 437/437 438/438
f 436/436 438/438 439/439
f 438/438 426/426 439/439
f 439/439 426/426 424/424
f 433/433 440/440 431/431
f 440/440 426/426 431/431
f 440/440 441/441 426/426
f 441/441 434/434 426/426
f 426/426 434/434 442/442
f 434/434 432/432 442/442
f 426/426 442/442 428/428
f 216/216 443/443 218/218
f 190/190 196/196 174/174
# num_faces: 277
