# 
# Wavefront OBJ file
# Converted by the DEEP Exploration Deep Exploration 6.5 x64 6.5.0.9182
# Right Hemisphere, LTD
# http://www.righthemisphere.com/
# 
mtllib kirillovskoe_shose2.mtl
# object Model
g Model
v 14.79810 1.29440 0.00000
v 14.79810 -5.83900 4.96040
v 14.79810 -5.83900 0.00000
v 14.79810 1.29440 4.73510
v 6.10190 1.29440 4.73510
v 6.10190 1.29440 0.00000
v 6.10190 5.83900 0.00000
v 6.10190 5.83900 4.59150
v -14.79810 5.83900 4.59150
v -14.79810 5.83900 0.00000
v -14.79810 -5.83900 0.00000
v -14.79810 -5.83900 4.96040
v -13.82280 -5.83900 2.96470
v -13.82280 -5.83900 0.00000
v -13.82280 -5.79900 0.00000
v -13.82280 -5.79900 2.96470
v -10.55280 -5.79900 2.96470
v -10.55280 -5.79900 0.00000
v -10.55280 -5.83900 0.00000
v -10.55280 -5.83900 2.96470
v -8.70140 -5.83900 3.36830
v -8.70140 -5.83900 0.00000
v -8.70140 -5.79900 0.00000
v -8.70140 -5.79900 3.36830
v -5.41140 -5.79900 3.36830
v -5.41140 -5.79900 0.00000
v -5.41140 -5.83900 0.00000
v -5.41140 -5.83900 3.36830
v 2.42670 -5.83900 3.37000
v 2.42670 -5.83900 0.00000
v 2.42670 -5.79900 0.00000
v 2.42670 -5.79900 3.37000
v 2.42670 -5.79900 1.51380
v 2.63930 -5.59950 1.51380
v 2.63930 -5.59950 0.00000
v 5.54670 -5.79900 0.00000
v 2.87720 -5.43090 0.00000
v 3.13590 -5.29640 0.00000
v 3.41050 -5.19850 0.00000
v 3.69590 -5.13900 0.00000
v 3.98670 -5.11900 0.00000
v 4.27760 -5.13900 0.00000
v 4.56300 -5.19850 0.00000
v 4.83760 -5.29640 0.00000
v 5.09630 -5.43090 0.00000
v 5.33410 -5.59950 0.00000
v 5.54670 -5.79900 1.51380
v 5.33410 -5.59950 1.51380
v 5.09630 -5.43090 1.51380
v 4.83760 -5.29640 1.51380
v 4.56300 -5.19850 1.51380
v 4.27760 -5.13900 1.51380
v 3.98670 -5.11900 1.51380
v 3.69590 -5.13900 1.51380
v 3.41050 -5.19850 1.51380
v 3.13590 -5.29640 1.51380
v 2.87720 -5.43090 1.51380
v 5.54670 -5.79900 3.37000
v 5.54670 -5.83900 3.37000
v 5.54670 -5.83900 0.00000
v 6.52260 -5.83900 2.98000
v 6.52260 -5.83900 0.00000
v 6.52260 -5.79900 0.00000
v 6.52260 -5.79900 2.98000
v 6.52260 -5.79900 1.59550
v 6.74190 -5.59920 1.59550
v 6.74190 -5.59920 0.00000
v 9.71260 -5.79900 0.00000
v 6.98610 -5.43050 0.00000
v 7.25060 -5.29610 0.00000
v 7.53080 -5.19830 0.00000
v 7.82150 -5.13890 0.00000
v 8.11750 -5.11900 0.00000
v 8.41360 -5.13890 0.00000
v 8.70440 -5.19830 0.00000
v 8.98450 -5.29610 0.00000
v 9.24900 -5.43050 0.00000
v 9.49320 -5.59920 0.00000
v 9.71260 -5.79900 1.59550
v 9.49320 -5.59920 1.59550
v 9.24900 -5.43050 1.59550
v 8.98450 -5.29610 1.59550
v 8.70440 -5.19830 1.59550
v 8.41360 -5.13890 1.59550
v 8.11750 -5.11900 1.59550
v 7.82150 -5.13890 1.59550
v 7.53080 -5.19830 1.59550
v 7.25060 -5.29610 1.59550
v 6.98610 -5.43050 1.59550
v 9.71260 -5.79900 2.98000
v 9.71260 -5.83900 2.98000
v 9.71260 -5.83900 0.00000
v 10.68990 -5.83900 2.98000
v 10.68990 -5.83900 0.00000
v 10.68990 -5.79900 0.00000
v 10.68990 -5.79900 2.98000
v 10.68990 -5.79900 1.82110
v 10.90830 -5.59920 1.82110
v 10.90830 -5.59920 0.00000
v 13.86990 -5.79900 0.00000
v 11.15160 -5.43060 0.00000
v 11.41530 -5.29610 0.00000
v 11.69460 -5.19830 0.00000
v 11.98460 -5.13890 0.00000
v 12.27990 -5.11900 0.00000
v 12.57520 -5.13890 0.00000
v 12.86520 -5.19830 0.00000
v 13.14460 -5.29610 0.00000
v 13.40830 -5.43060 0.00000
v 13.65150 -5.59920 0.00000
v 13.86990 -5.79900 1.82110
v 13.65150 -5.59920 1.82110
v 13.40830 -5.43060 1.82110
v 13.14460 -5.29610 1.82110
v 12.86520 -5.19830 1.82110
v 12.57520 -5.13890 1.82110
v 12.27990 -5.11900 1.82110
v 11.98460 -5.13890 1.82110
v 11.69460 -5.19830 1.82110
v 11.41530 -5.29610 1.82110
v 11.15160 -5.43060 1.82110
v 13.86990 -5.79900 2.98000
v 13.86990 -5.83900 2.98000
v 13.86990 -5.83900 0.00000
# 124 verticies
vt 0.43890 0.34590
vt 0.19880 0.51280
vt 0.19880 0.34590
vt 0.43890 0.50520
vt 0.00200 0.17980
vt 0.29470 0.33910
vt 0.00200 0.33910
vt 0.29470 0.17980
vt 0.59180 0.34590
vt 0.59180 0.50040
vt 0.99800 0.33430
vt 0.29470 0.33430
vt 0.99800 0.17980
vt 0.99770 0.34590
vt 0.60470 0.50040
vt 0.60470 0.34590
vt 0.99770 0.51280
vt 0.00200 0.00200
vt 0.03480 0.10180
vt 0.00200 0.16890
vt 0.03480 0.00200
vt 0.14490 0.10180
vt 0.14490 0.00200
vt 0.20720 0.11540
vt 0.20720 0.00200
vt 0.31790 0.11540
vt 0.31790 0.00200
vt 0.58170 0.11540
vt 0.58170 0.00200
vt 0.58170 0.05290
vt 0.58880 0.05290
vt 0.58880 0.00200
vt 0.68670 0.54700
vt 0.58880 0.55370
vt 0.58170 0.54700
vt 0.59680 0.55940
vt 0.60550 0.56390
vt 0.61480 0.56720
vt 0.62440 0.56920
vt 0.63420 0.56990
vt 0.64400 0.56920
vt 0.65360 0.56720
vt 0.66280 0.56390
vt 0.67150 0.55940
vt 0.67950 0.55370
vt 0.68670 0.05290
vt 0.67950 0.00200
vt 0.68670 0.00200
vt 0.67950 0.05290
vt 0.86190 0.66210
vt 0.87710 0.67450
vt 0.86910 0.66890
vt 0.88580 0.67910
vt 0.89500 0.68240
vt 0.90460 0.68440
vt 0.91440 0.68500
vt 0.92420 0.68440
vt 0.93380 0.68240
vt 0.94310 0.67910
vt 0.95180 0.67450
vt 0.95980 0.66890
vt 0.96690 0.66210
vt 0.68670 0.11540
vt -2.31140 0.04120
vt -2.42380 0.04120
vt -2.36190 0.04120
vt 0.71950 0.10230
vt 0.71950 0.00200
vt 0.71950 0.05570
vt 0.72690 0.05570
vt 0.72690 0.00200
vt 0.82700 0.54700
vt 0.72690 0.55370
vt 0.71960 0.54700
vt 0.73520 0.55940
vt 0.74410 0.56390
vt 0.75350 0.56720
vt 0.76330 0.56920
vt 0.77330 0.56990
vt 0.78320 0.56920
vt 0.79300 0.56720
vt 0.80250 0.56390
vt 0.81140 0.55940
vt 0.81960 0.55370
vt 0.82690 0.05570
vt 0.81950 0.00200
vt 0.82690 0.00200
vt 0.81950 0.05570
vt 0.72160 0.66210
vt 0.73720 0.67460
vt 0.72900 0.66890
vt 0.74610 0.67910
vt 0.75560 0.68240
vt 0.76540 0.68440
vt 0.77530 0.68500
vt 0.78530 0.68440
vt 0.79510 0.68240
vt 0.80450 0.67910
vt 0.81340 0.67460
vt 0.82170 0.66890
vt 0.82900 0.66210
vt 0.82690 0.10230
vt -1.73880 0.04120
vt -1.83830 0.04120
vt -1.79210 0.04120
vt 0.85970 0.10230
vt 0.85970 0.00200
vt 0.85970 0.06330
vt 0.86710 0.06330
vt 0.86710 0.00200
vt 0.96690 0.54700
vt 0.86720 0.55370
vt 0.85990 0.54700
vt 0.87540 0.55940
vt 0.88430 0.56390
vt 0.89370 0.56720
vt 0.90350 0.56920
vt 0.91340 0.56990
vt 0.92340 0.56920
vt 0.93310 0.56720
vt 0.94250 0.56390
vt 0.95140 0.55940
vt 0.95960 0.55370
vt 0.96680 0.06330
vt 0.95940 0.00200
vt 0.96680 0.00200
vt 0.95940 0.06330
vt 0.58170 0.66210
vt 0.59720 0.67450
vt 0.58900 0.66890
vt 0.60610 0.67910
vt 0.61550 0.68240
vt 0.62520 0.68440
vt 0.63520 0.68500
vt 0.64510 0.68440
vt 0.65490 0.68240
vt 0.66430 0.67910
vt 0.67320 0.67450
vt 0.68140 0.66890
vt 0.68870 0.66210
vt 0.96680 0.10230
vt -1.95780 0.04120
vt -2.05720 0.04120
vt -2.01860 0.04120
vt 0.99800 0.16890
vt 0.99800 0.00200
vt 0.98890 0.70030
vt 0.42590 0.92250
vt 0.42590 0.70030
vt 0.82350 0.83600
vt 0.98890 0.83600
vt 0.82350 0.92250
vt 0.87530 0.06330
vt 0.87530 0.00200
vt 0.88420 0.06330
vt 0.88420 0.00200
vt 0.89360 0.06330
vt 0.89360 0.00200
vt 0.90330 0.06330
vt 0.90330 0.00200
vt 0.91330 0.06330
vt 0.91330 0.00200
vt 0.92320 0.06330
vt 0.92320 0.00200
vt 0.93300 0.06330
vt 0.93300 0.00200
vt 0.94240 0.06330
vt 0.94240 0.00200
vt 0.95120 0.06330
vt 0.95120 0.00200
vt 0.73510 0.05570
vt 0.73510 0.00200
vt 0.74400 0.05570
vt 0.74400 0.00200
vt 0.75340 0.05570
vt 0.75340 0.00200
vt 0.76320 0.05570
vt 0.76320 0.00200
vt 0.77320 0.05570
vt 0.77320 0.00200
vt 0.78310 0.05570
vt 0.78310 0.00200
vt 0.79290 0.05570
vt 0.79290 0.00200
vt 0.80240 0.05570
vt 0.80240 0.00200
vt 0.81130 0.05570
vt 0.81130 0.00200
vt 0.59680 0.05290
vt 0.59680 0.00200
vt 0.60550 0.05290
vt 0.60550 0.00200
vt 0.61480 0.05290
vt 0.61480 0.00200
vt 0.62440 0.05290
vt 0.62440 0.00200
vt 0.63420 0.05290
vt 0.63420 0.00200
vt 0.64400 0.05290
vt 0.64400 0.00200
vt 0.65360 0.05290
vt 0.65360 0.00200
vt 0.66280 0.05290
vt 0.66280 0.00200
vt 0.67150 0.05290
vt 0.67150 0.00200
# 206 texture verticies
vn 1.00000 0.00000 0.00000
vn 0.00000 1.00000 0.00000
vn -1.00000 0.00000 0.00000
vn 0.00000 -1.00000 0.00000
vn 0.00000 0.00000 1.00000
vn 0.68430 -0.72920 0.00000
vn -0.68430 -0.72920 0.00000
vn 0.00000 0.00000 -1.00000
vn 0.67339 -0.73929 0.00000
vn -0.67339 -0.73929 0.00000
vn 0.67496 -0.73786 0.00000
vn -0.67496 -0.73786 0.00000
vn 0.00000 0.03160 0.99950
vn 0.56979 -0.82179 0.00000
vn 0.45420 -0.89090 0.00000
vn 0.33041 -0.94384 0.00000
vn 0.20069 -0.97965 0.00000
vn 0.06730 -0.99773 0.00000
vn -0.06730 -0.99773 0.00000
vn -0.20069 -0.97965 0.00000
vn -0.33041 -0.94384 0.00000
vn -0.45420 -0.89090 0.00000
vn -0.56979 -0.82179 0.00000
vn 0.56838 -0.82277 0.00000
vn 0.45300 -0.89151 0.00000
vn 0.32952 -0.94415 0.00000
vn 0.20010 -0.97978 0.00000
vn 0.06710 -0.99775 0.00000
vn -0.06710 -0.99775 0.00000
vn -0.20010 -0.97978 0.00000
vn -0.32952 -0.94415 0.00000
vn -0.45300 -0.89151 0.00000
vn -0.56838 -0.82277 0.00000
vn 0.57826 -0.81585 0.00000
vn 0.46140 -0.88719 0.00000
vn 0.33590 -0.94190 0.00000
vn 0.20409 -0.97895 0.00000
vn 0.06850 -0.99765 0.00000
vn -0.06850 -0.99765 0.00000
vn -0.20409 -0.97895 0.00000
vn -0.33590 -0.94190 0.00000
vn -0.46140 -0.88719 0.00000
vn -0.57826 -0.81585 0.00000
# 43 normals
usemtl FrontCol
f  1/1/1 2/2/1 3/3/1
f  2/2/1 1/1/1 4/4/1
f  1/5/2 5/6/2 4/7/2
f  5/6/2 1/5/2 6/8/2
f  7/9/1 5/4/1 6/1/1
f  5/4/1 7/9/1 8/10/1
f  7/8/2 9/11/2 8/12/2
f  9/11/2 7/8/2 10/13/2
f  11/14/3 9/15/3 10/16/3
f  9/15/3 11/14/3 12/17/3
f  11/18/4 13/19/4 12/20/4
f  13/19/4 11/18/4 14/21/4
f  15/21/1 13/19/1 14/21/1
f  13/19/1 15/21/1 16/19/1
f  15/21/4 17/22/4 16/19/4
f  17/22/4 15/21/4 18/23/4
f  19/23/3 17/22/3 18/23/3
f  17/22/3 19/23/3 20/22/3
f  19/23/4 21/24/4 20/22/4
f  21/24/4 19/23/4 22/25/4
f  23/25/1 21/24/1 22/25/1
f  21/24/1 23/25/1 24/24/1
f  23/25/4 25/26/4 24/24/4
f  25/26/4 23/25/4 26/27/4
f  27/27/3 25/26/3 26/27/3
f  25/26/3 27/27/3 28/26/3
f  27/27/4 29/28/4 28/26/4
f  29/28/4 27/27/4 30/29/4
f  31/29/1 29/28/1 30/29/1
f  29/28/1 31/29/1 32/28/1
f  32/28/5 31/29/5 33/30/5
f  31/29/6 34/31/6 33/30/6
f  34/31/6 31/29/6 35/32/6
f  36/33/5 35/34/5 31/35/5
f  35/34/5 36/33/5 37/36/5
f  37/36/5 36/33/5 38/37/5
f  38/37/5 36/33/5 39/38/5
f  39/38/5 36/33/5 40/39/5
f  40/39/5 36/33/5 41/40/5
f  41/40/5 36/33/5 42/41/5
f  42/41/5 36/33/5 43/42/5
f  43/42/5 36/33/5 44/43/5
f  44/43/5 36/33/5 45/44/5
f  45/44/5 36/33/5 46/45/5
f  47/46/7 46/47/7 36/48/7
f  46/47/7 47/46/7 48/49/7
f  47/50/8 49/51/8 48/52/8
f  47/50/8 50/53/8 49/51/8
f  47/50/8 51/54/8 50/53/8
f  47/50/8 52/55/8 51/54/8
f  47/50/8 53/56/8 52/55/8
f  47/50/8 54/57/8 53/56/8
f  47/50/8 55/58/8 54/57/8
f  47/50/8 56/59/8 55/58/8
f  47/50/8 57/60/8 56/59/8
f  47/50/8 34/61/8 57/60/8
f  34/61/8 47/50/8 33/62/8
f  58/63/4 33/30/4 47/46/4
f  33/30/4 58/63/4 32/28/4
f  58/63/8 29/28/8 32/28/8
f  29/28/8 58/63/8 59/63/8
f  58/63/3 60/48/3 59/63/3
f  60/48/3 58/63/3 36/48/3
f  36/64/5 58/65/5 47/66/5
f  60/48/4 61/67/4 59/63/4
f  61/67/4 60/48/4 62/68/4
f  63/68/1 61/67/1 62/68/1
f  61/67/1 63/68/1 64/67/1
f  64/67/5 63/68/5 65/69/5
f  63/68/9 66/70/9 65/69/9
f  66/70/9 63/68/9 67/71/9
f  68/72/5 67/73/5 63/74/5
f  67/73/5 68/72/5 69/75/5
f  69/75/5 68/72/5 70/76/5
f  70/76/5 68/72/5 71/77/5
f  71/77/5 68/72/5 72/78/5
f  72/78/5 68/72/5 73/79/5
f  73/79/5 68/72/5 74/80/5
f  74/80/5 68/72/5 75/81/5
f  75/81/5 68/72/5 76/82/5
f  76/82/5 68/72/5 77/83/5
f  77/83/5 68/72/5 78/84/5
f  79/85/10 78/86/10 68/87/10
f  78/86/10 79/85/10 80/88/10
f  79/89/8 81/90/8 80/91/8
f  79/89/8 82/92/8 81/90/8
f  79/89/8 83/93/8 82/92/8
f  79/89/8 84/94/8 83/93/8
f  79/89/8 85/95/8 84/94/8
f  79/89/8 86/96/8 85/95/8
f  79/89/8 87/97/8 86/96/8
f  79/89/8 88/98/8 87/97/8
f  79/89/8 89/99/8 88/98/8
f  79/89/8 66/100/8 89/99/8
f  66/100/8 79/89/8 65/101/8
f  90/102/4 65/69/4 79/85/4
f  65/69/4 90/102/4 64/67/4
f  90/102/8 61/67/8 64/67/8
f  61/67/8 90/102/8 91/102/8
f  90/102/3 92/87/3 91/102/3
f  92/87/3 90/102/3 68/87/3
f  68/103/5 90/104/5 79/105/5
f  92/87/4 93/106/4 91/102/4
f  93/106/4 92/87/4 94/107/4
f  95/107/1 93/106/1 94/107/1
f  93/106/1 95/107/1 96/106/1
f  96/106/5 95/107/5 97/108/5
f  95/107/11 98/109/11 97/108/11
f  98/109/11 95/107/11 99/110/11
f  100/111/5 99/112/5 95/113/5
f  99/112/5 100/111/5 101/114/5
f  101/114/5 100/111/5 102/115/5
f  102/115/5 100/111/5 103/116/5
f  103/116/5 100/111/5 104/117/5
f  104/117/5 100/111/5 105/118/5
f  105/118/5 100/111/5 106/119/5
f  106/119/5 100/111/5 107/120/5
f  107/120/5 100/111/5 108/121/5
f  108/121/5 100/111/5 109/122/5
f  109/122/5 100/111/5 110/123/5
f  111/124/12 110/125/12 100/126/12
f  110/125/12 111/124/12 112/127/12
f  111/128/8 113/129/8 112/130/8
f  111/128/8 114/131/8 113/129/8
f  111/128/8 115/132/8 114/131/8
f  111/128/8 116/133/8 115/132/8
f  111/128/8 117/134/8 116/133/8
f  111/128/8 118/135/8 117/134/8
f  111/128/8 119/136/8 118/135/8
f  111/128/8 120/137/8 119/136/8
f  111/128/8 121/138/8 120/137/8
f  111/128/8 98/139/8 121/138/8
f  98/139/8 111/128/8 97/140/8
f  122/141/4 97/108/4 111/124/4
f  97/108/4 122/141/4 96/106/4
f  122/141/8 93/106/8 96/106/8
f  93/106/8 122/141/8 123/141/8
f  122/141/3 124/126/3 123/141/3
f  124/126/3 122/141/3 100/126/3
f  100/142/5 122/143/5 111/144/5
f  124/126/4 2/145/4 123/141/4
f  2/145/4 124/126/4 3/146/4
f  123/141/4 2/145/4 93/106/4
f  93/106/4 2/145/4 91/102/4
f  91/102/4 2/145/4 61/67/4
f  61/67/4 2/145/4 59/63/4
f  59/63/4 2/145/4 29/28/4
f  12/20/4 29/28/4 2/145/4
f  12/20/4 21/24/4 29/28/4
f  12/20/4 13/19/4 21/24/4
f  20/22/4 21/24/4 13/19/4
f  13/19/8 17/22/8 20/22/8
f  17/22/8 13/19/8 16/19/8
f  28/26/4 29/28/4 21/24/4
f  21/24/8 25/26/8 28/26/8
f  25/26/8 21/24/8 24/24/8
f  2/147/13 9/148/13 12/149/13
f  9/148/13 2/147/13 5/150/13
f  5/150/13 2/147/13 4/151/13
f  8/152/13 9/148/13 5/150/13
f  99/110/14 121/153/14 98/109/14
f  121/153/14 99/110/14 101/154/14
f  101/154/15 120/155/15 121/153/15
f  120/155/15 101/154/15 102/156/15
f  102/156/16 119/157/16 120/155/16
f  119/157/16 102/156/16 103/158/16
f  103/158/17 118/159/17 119/157/17
f  118/159/17 103/158/17 104/160/17
f  104/160/18 117/161/18 118/159/18
f  117/161/18 104/160/18 105/162/18
f  105/162/19 116/163/19 117/161/19
f  116/163/19 105/162/19 106/164/19
f  106/164/20 115/165/20 116/163/20
f  115/165/20 106/164/20 107/166/20
f  107/166/21 114/167/21 115/165/21
f  114/167/21 107/166/21 108/168/21
f  108/168/22 113/169/22 114/167/22
f  113/169/22 108/168/22 109/170/22
f  109/170/23 112/127/23 113/169/23
f  112/127/23 109/170/23 110/125/23
f  67/71/24 89/171/24 66/70/24
f  89/171/24 67/71/24 69/172/24
f  69/172/25 88/173/25 89/171/25
f  88/173/25 69/172/25 70/174/25
f  70/174/26 87/175/26 88/173/26
f  87/175/26 70/174/26 71/176/26
f  71/176/27 86/177/27 87/175/27
f  86/177/27 71/176/27 72/178/27
f  72/178/28 85/179/28 86/177/28
f  85/179/28 72/178/28 73/180/28
f  73/180/29 84/181/29 85/179/29
f  84/181/29 73/180/29 74/182/29
f  74/182/30 83/183/30 84/181/30
f  83/183/30 74/182/30 75/184/30
f  75/184/31 82/185/31 83/183/31
f  82/185/31 75/184/31 76/186/31
f  76/186/32 81/187/32 82/185/32
f  81/187/32 76/186/32 77/188/32
f  77/188/33 80/88/33 81/187/33
f  80/88/33 77/188/33 78/86/33
f  35/32/34 57/189/34 34/31/34
f  57/189/34 35/32/34 37/190/34
f  37/190/35 56/191/35 57/189/35
f  56/191/35 37/190/35 38/192/35
f  38/192/36 55/193/36 56/191/36
f  55/193/36 38/192/36 39/194/36
f  39/194/37 54/195/37 55/193/37
f  54/195/37 39/194/37 40/196/37
f  40/196/38 53/197/38 54/195/38
f  53/197/38 40/196/38 41/198/38
f  41/198/39 52/199/39 53/197/39
f  52/199/39 41/198/39 42/200/39
f  42/200/40 51/201/40 52/199/40
f  51/201/40 42/200/40 43/202/40
f  43/202/41 50/203/41 51/201/41
f  50/203/41 43/202/41 44/204/41
f  44/204/42 49/205/42 50/203/42
f  49/205/42 44/204/42 45/206/42
f  45/206/43 48/49/43 49/205/43
f  48/49/43 45/206/43 46/47/43
